<svg version="1.1" xmlns="http://www.w3.org/2000/svg" style="display: block;" viewBox="0 0 2048 706" width="920" height="317" preserveAspectRatio="none">
<defs>
	<linearGradient id="Gradient1" gradientUnits="userSpaceOnUse" x1="612.98" y1="105.732" x2="597.504" y2="90.7365">
		<stop class="stop0" offset="0" stop-opacity="1" stop-color="rgb(229,222,230)"/>
		<stop class="stop1" offset="1" stop-opacity="1" stop-color="rgb(255,255,253)"/>
	</linearGradient>
</defs>
<path transform="translate(0,0)" fill="rgb(253,253,253)" d="M 0 0 L 2048 0 L 2048 706 L 0 706 L 0 0 z"/>
<path transform="translate(0,0)" fill="rgb(183,183,185)" d="M 1649.84 83.042 C 1667.18 82.4151 1667.58 86.5674 1672.31 101.906 C 1677.91 91.9554 1687.26 86.0802 1690.78 100.907 C 1697.64 129.861 1693.87 161.7 1694.93 191.333 C 1694.24 209.798 1703.21 228.505 1703.84 246.388 C 1704.61 267.887 1685.73 287.43 1664.25 276.113 L 1660.98 273.131 C 1656.91 272.439 1637.02 280.653 1629.41 282.568 C 1621.51 278.991 1614.74 273.305 1609.85 266.135 C 1599.93 251.349 1609.27 221.991 1610.78 204.583 C 1612.68 182.66 1611.82 157.218 1615.74 136.134 C 1618.57 120.941 1626.86 96.922 1642.06 91.4239 C 1642.23 91.3498 1646.36 85.3404 1649.84 83.042 z"/>
<path transform="translate(0,0)" fill="rgb(253,253,253)" d="M 1640.36 93.6597 C 1641.22 93.889 1642.7 94.5137 1643.58 94.8571 C 1648.2 102.981 1638.36 175.43 1657.2 173.035 C 1673.93 159.101 1664.31 104.214 1680.51 94.4901 C 1684.52 94.0803 1683.17 93.6844 1686.34 95.6347 C 1693.31 105.608 1692.89 145.416 1692.88 158.75 C 1692.76 176.752 1692.54 192.694 1694.26 210.621 C 1668.18 203.182 1639.16 199.557 1612.88 207.274 C 1613.62 177.067 1612.54 111.269 1640.36 93.6597 z"/>
<path transform="translate(0,0)" fill="rgb(253,253,253)" d="M 1628 205.282 C 1645.52 202.913 1678.75 206.97 1695.32 213.698 C 1699.8 235.501 1710.75 258.304 1687.5 274.55 C 1679.2 280.347 1667.97 279.755 1662.19 270.766 C 1662.3 266.338 1663.08 256.317 1660.35 253.187 C 1658.31 258.881 1659.23 263.406 1659.65 269.474 C 1639.16 280.035 1616.75 287.441 1608.26 256.901 C 1605.48 246.914 1610.21 220.586 1612.56 209.953 C 1618.15 208.008 1622.25 206.615 1628 205.282 z"/>
<path transform="translate(0,0)" fill="rgb(253,253,253)" d="M 1653.17 84.0299 C 1682.72 83.0349 1664.79 155.179 1658.6 169.464 C 1657.87 170.275 1656.75 170.795 1655.78 171.346 C 1644.17 164.593 1647.69 113.092 1646.17 100.092 C 1645.79 96.8484 1644.95 91.488 1646.22 88.4991 C 1648.47 85.6865 1649.76 85.3877 1653.17 84.0299 z"/>
<path transform="translate(0,0)" fill="rgb(183,183,185)" d="M 374.003 83.0462 C 378.015 82.8801 382.239 82.3854 386.002 83.6406 C 398.75 96.0649 404.825 94.5271 413.129 113.875 C 416.924 122.631 419.589 131.835 421.06 141.264 C 423.719 158.525 422.685 182.427 424.551 200.325 C 426.398 216.145 429.023 231.727 430.641 247.587 C 432.188 262.758 419.73 276.965 406.285 282.383 C 396.381 280.076 388.715 277.065 379.34 273.348 C 376.069 270.649 370.826 276.322 367.991 278.595 C 317.583 287.636 335.732 224.757 340.509 198.429 C 343.7 180.838 334.071 95.7787 353.416 91.8167 C 358.831 93.4085 360.966 97.6999 363.641 102.338 C 366.156 93.2564 366.792 89.2667 374.003 83.0462 z"/>
<path transform="translate(0,0)" fill="rgb(253,253,253)" d="M 350.323 93.6132 C 350.567 93.6391 350.81 93.665 351.054 93.6909 L 351.476 93.754 C 373.285 96.8134 361.672 165.024 379.066 173.638 C 398.294 169.167 385.864 101.682 394.265 94.5438 C 408.316 93.2573 418.524 135.858 419.833 147.23 C 420.162 165.883 421.85 188.846 423.118 207.579 C 396.935 198.724 367.463 203.776 341.309 210.818 C 344.004 181.017 339.498 113.36 350.323 93.6132 z"/>
<path transform="translate(0,0)" fill="rgb(253,253,253)" d="M 384.779 205.447 C 400.485 203.357 409.147 204.729 423.543 210.138 C 424.954 219.564 431.311 252.479 427.391 259.94 C 413.27 286.823 398.29 280.798 376.24 269.322 L 376.264 255.75 C 376.306 254.814 375.972 253.82 375.735 252.894 C 373.958 254.089 374.576 262.69 373.819 266.204 C 369.715 285.265 346.729 279.097 338.745 265.026 C 329.571 248.856 336.37 230.324 340.582 213.385 C 356.889 207.895 367.891 206.588 384.779 205.447 z"/>
<path transform="translate(0,0)" fill="rgb(253,253,253)" d="M 378.69 84.0015 C 380.907 84.2807 389.487 85.5358 389.319 88.9624 C 388.731 100.955 392.291 168.89 378.861 171.565 C 371.172 157.31 355.002 89.6285 378.69 84.0015 z"/>
<path transform="translate(0,0)" fill="rgb(183,183,185)" d="M 1628.94 410.327 C 1631.9 409.963 1634.81 409.994 1637.78 410.223 C 1644.27 410.724 1649.06 412.212 1653.41 417.313 C 1659.26 414.558 1671.8 407.769 1678.17 410.78 C 1681.5 412.357 1684.17 414.72 1687.98 415.173 C 1692.61 415.723 1696.66 412.862 1701.37 414.138 C 1703.77 415.581 1705.09 417.203 1706.43 419.659 C 1720.04 444.506 1697.58 457.854 1693.42 478.973 C 1692.34 484.457 1692.76 490.875 1692.66 496.48 C 1692.33 515.302 1694.97 555.827 1690.31 571.64 C 1688.34 578.329 1684.14 590.805 1677.44 594.296 C 1675.71 595.195 1675.16 595.449 1673.32 594.851 C 1670.06 588.57 1673.08 566.708 1671.15 557.335 C 1669.25 548.139 1662.34 540.384 1660.01 529.763 C 1659.03 525.409 1658.11 520.962 1656.79 516.7 C 1655.74 513.311 1654.46 509.672 1651.09 507.97 C 1649.97 507.403 1649.25 507.939 1648.1 508.299 C 1636.36 521.898 1648.44 566.095 1647.83 584.001 C 1647.67 588.713 1646.76 593.268 1643.17 596.598 C 1641.96 596.998 1640.81 597.567 1639.52 597.396 C 1632.57 596.473 1625.31 587.774 1621.39 582.475 C 1599.69 553.135 1613.68 508.69 1618.55 475.799 C 1610.11 462.203 1602.58 445.766 1601.72 429.696 C 1608.82 420.122 1617.34 413.373 1628.94 410.327 z"/>
<path transform="translate(0,0)" fill="rgb(253,253,253)" d="M 1629.03 412.068 C 1634.87 411.952 1643.31 411.109 1648.06 415.237 C 1653.12 419.638 1652.41 429.429 1652.74 435.63 C 1654.68 430.528 1654.75 424.645 1655.22 419.238 C 1663.04 414.828 1670.64 411.468 1679.89 412.513 C 1691.18 413.786 1684.29 421.412 1688.11 426.317 C 1689.27 424.266 1689.53 421.997 1690.49 419.879 C 1691.63 417.37 1693.52 416.287 1695.98 415.339 C 1697.95 415.287 1699.58 415.329 1701.27 416.453 C 1705.15 419.041 1706.73 424.084 1707.5 428.463 C 1711.52 451.448 1695.49 458.427 1691.78 477.334 C 1686.64 503.464 1695.15 550.242 1688.17 571.778 C 1685.26 580.739 1679.85 588.387 1674.52 596.036 C 1674.68 575.489 1677.51 560.555 1666.18 542.414 C 1661.17 532.788 1661.71 512.25 1652.83 506.417 C 1649.89 505.859 1649.17 505.697 1646.4 506.829 C 1631.76 523.641 1651.66 573.811 1643.47 593.411 C 1641.61 595.145 1641.5 595.434 1638.83 595.415 C 1631.85 591.987 1626.21 586.088 1621.74 579.811 C 1602.72 553.078 1615.49 506.519 1620.53 476.629 C 1616.74 466.543 1610.59 457.432 1606.97 447.201 C 1604.75 440.91 1603.32 433.674 1606.47 427.422 C 1610.7 419.018 1620.56 414.781 1629.03 412.068 z"/>
<path transform="translate(0,0)" fill="rgb(183,183,185)" d="M 1640.83 462.186 C 1649.38 460.799 1659.73 467.585 1669.14 467.518 C 1677.42 467.46 1684.22 461.448 1692.75 462.358 C 1690.4 464.903 1678.26 467.578 1674.22 469.021 C 1662.68 469.479 1654.92 467.45 1644.32 463.448 C 1637 465.143 1629.72 467.507 1622.2 468.084 C 1628.37 465.808 1634.44 463.812 1640.83 462.186 z"/>
<path transform="translate(0,0)" fill="rgb(253,253,253)" d="M 383.52 418.717 C 401.178 400.122 423.797 413.168 437.044 429.743 C 434.878 451.959 427.514 456.975 421.057 476.946 C 419.9 481.627 422.347 486.504 422.862 491.353 C 425.658 517.689 435.553 549.255 422.475 574.076 C 418.705 581.233 404.501 601.687 394.888 596.283 C 387.145 591.93 392.823 574.842 393.449 567.979 C 396.621 548.788 399.118 529.939 394.316 510.631 C 391.335 508.055 391.312 508.137 388.102 508.093 C 379.622 512.548 379.227 531.947 376.003 540.271 C 373.985 545.483 368.463 550.964 367.177 557.391 C 364.819 569.185 367.818 583.029 365.534 594.346 C 365.334 595.336 364.557 595.355 363.512 595.754 C 335.772 584.613 350.335 500.784 344.605 477.524 C 340.517 460.925 325.209 448.917 328.34 430.88 C 330.844 416.457 335.131 411.601 349.466 415.691 C 349.213 415.636 362.865 407.631 370.765 411.178 C 376.263 413.646 379.138 412.246 383.52 418.717 z"/>
<path transform="translate(0,0)" fill="rgb(183,183,185)" d="M 383.52 418.717 C 401.178 400.122 423.797 413.168 437.044 429.743 C 434.878 451.959 427.514 456.975 421.057 476.946 C 419.9 481.627 422.347 486.504 422.862 491.353 C 425.658 517.689 435.553 549.255 422.475 574.076 C 418.705 581.233 404.501 601.687 394.888 596.283 C 387.145 591.93 392.823 574.842 393.449 567.979 C 396.621 548.788 399.118 529.939 394.316 510.631 C 391.335 508.055 391.312 508.137 388.102 508.093 C 379.622 512.548 379.227 531.947 376.003 540.271 C 373.985 545.483 368.463 550.964 367.177 557.391 C 364.819 569.185 367.818 583.029 365.534 594.346 C 365.334 595.336 364.557 595.355 363.512 595.754 C 335.772 584.613 350.335 500.784 344.605 477.524 C 340.517 460.925 325.209 448.917 328.34 430.88 C 330.844 416.457 335.131 411.601 349.466 415.691 C 349.213 415.636 362.865 407.631 370.765 411.178 C 376.263 413.646 379.138 412.246 383.52 418.717 C 371.36 413.04 352.453 404.778 351.074 425.566 L 349.82 426.026 C 347.866 421.937 346.684 417.416 343.392 414.714 C 341.982 414.325 340.429 413.793 339.163 414.915 C 315.937 435.495 342.11 458.47 346.619 476.567 C 351.441 495.918 346.594 526.588 348.253 547.119 C 348.393 573.106 349.412 574.192 363.752 596.059 C 363.869 585.556 363.484 573.816 364.248 563.45 C 365.413 554.084 371.99 543.747 374.992 535.304 C 377.142 529.255 380.078 503.764 390.612 506.327 C 403.634 509.496 398.455 542.696 397.671 553.394 C 396.856 564.501 392.106 578.198 392.924 589.598 C 393.126 592.415 395.831 594.86 398.143 596.44 C 410.562 589.872 419.918 578.704 424.209 565.325 C 432.382 539.67 419.501 500.811 419.119 471.933 C 415.751 467.573 404.954 466.038 399.852 465.033 C 388.84 462.864 381.686 469.395 371.251 469.241 C 361.703 469.101 355.453 465.267 345.115 463.517 L 344.849 462.671 C 349.802 461.297 362.73 467.028 371.129 466.722 C 382.494 466.308 384.804 465.139 395.342 461.233 C 401.439 462.959 415.615 466.895 420.886 469.616 C 429.164 454.782 433.288 447.525 434.875 430.144 C 426.481 419.282 419.011 414.039 405.287 411.817 C 379.699 407.675 389.504 429.114 385.464 434.741 C 383.623 429.869 383.716 423.973 383.52 418.717 z"/>
<path transform="translate(0,0)" fill="rgb(183,183,185)" d="M 1742.41 411.778 C 1753.82 411.61 1760.94 419.385 1770.77 423.735 C 1773.68 422.433 1776.62 421.116 1779.59 419.957 C 1786.34 417.322 1793.65 417.384 1800.29 420.376 C 1806.23 423.053 1812.12 428.608 1814.4 434.798 C 1820.9 452.471 1807.75 469.258 1804.08 485.926 C 1797.92 513.855 1816.82 559.69 1806.68 581.524 C 1805.43 584.204 1803.54 587.178 1800.58 588.146 C 1798.47 588.837 1796.12 588.528 1794.18 587.488 C 1792.48 586.58 1791.03 585.188 1790.21 583.438 C 1787.11 576.839 1785.87 568.674 1783.5 561.723 C 1779.72 550.674 1774.79 540.198 1771.33 528.981 C 1771.02 526.559 1770.01 522.89 1768.55 520.878 C 1767.2 519.028 1766.45 518.44 1764.22 518.125 C 1763.96 518.393 1763.85 518.495 1763.62 518.828 C 1760.33 523.659 1764.63 546.106 1766.3 551.772 C 1769.46 562.447 1775.01 572.218 1776.42 583.426 C 1776.93 587.537 1777 590.851 1774.38 594.215 L 1771.53 594.442 C 1761.8 591.035 1754.04 580.606 1748.47 572.397 C 1745.02 567.299 1741.04 561.7 1738.99 555.885 C 1732.22 536.688 1739.47 509.655 1732.88 488.748 C 1728.16 473.814 1715.11 454.242 1718.57 438.405 C 1720.54 429.413 1734.8 416.679 1742.41 411.778 z"/>
<path transform="translate(0,0)" fill="rgb(253,253,253)" d="M 1743.27 413.144 C 1750.41 413.999 1757.4 417.482 1763.26 421.5 C 1772.15 427.591 1769.32 429.193 1771.03 438.423 C 1772.22 438.081 1774.42 424.969 1777.07 422.082 C 1780.98 419.886 1784.92 419.373 1789.31 419.877 C 1796.25 420.673 1804.88 424.074 1809.25 429.727 C 1822.14 446.404 1807.31 464.521 1802.96 480.987 C 1794.79 511.927 1810.59 542.061 1806.71 572.84 C 1806.15 577.284 1804.86 582.827 1801.04 585.62 C 1799.28 586.913 1798.46 587.465 1796.33 587.123 C 1794.28 584.895 1792.84 582.541 1791.62 579.785 C 1788.7 573.133 1787.19 565.639 1784.7 558.786 C 1782 551.314 1778.4 544.333 1775.88 536.739 C 1774.43 531.469 1772.38 520.119 1767.78 516.72 C 1766.14 515.509 1765.48 515.831 1763.57 516.139 C 1749.81 527.329 1776.59 573.189 1774.68 588.906 C 1773.45 591.02 1773.48 591.009 1771.13 591.667 C 1762.48 589.777 1754.35 577.351 1749.36 570.439 C 1745.6 565.228 1741.73 559.655 1740.29 553.3 C 1736.14 534.942 1740.23 515.325 1736.92 496.865 C 1733.73 479.043 1717.11 457.567 1720.39 439.489 C 1722.11 429.985 1735.68 418.579 1743.27 413.144 z"/>
<path transform="translate(0,0)" fill="rgb(183,183,185)" d="M 1806.06 461.177 C 1806.35 461.436 1806.47 462.132 1806.6 462.504 C 1778.16 472.558 1784.96 464.061 1760.46 464.319 C 1748.86 464.441 1745.07 467.806 1732.2 465.411 C 1731.48 464.791 1731.48 464.572 1731.21 463.646 C 1745.41 465.115 1747.87 462.416 1759.96 462.371 C 1781.21 462.292 1783.29 469.26 1806.06 461.177 z"/>
<path transform="translate(0,0)" fill="rgb(183,183,185)" d="M 289.466 411.927 C 290.33 411.88 291.173 411.885 292.037 411.903 C 293.374 411.931 294.566 412.081 295.792 412.668 C 305.971 417.537 316.359 430.668 320.347 441.065 C 317.389 459.733 307.725 475.253 303.659 493.299 C 294.205 535.265 314.646 550.558 275.518 588.46 C 273.03 590.87 269.259 594.156 265.62 593.989 C 263.851 593.908 263.562 593.3 262.392 592.04 C 258.102 579.681 268.048 562.374 271.251 550.317 C 273.427 542.128 274.801 533.044 275.187 524.582 C 275.321 521.639 275.449 519.583 273.44 517.334 L 270.962 517.773 C 268.578 520.028 267.778 523.73 266.752 526.766 C 266.566 527.442 266.377 528.117 266.184 528.791 C 263.039 539.781 258.172 549.906 254.421 560.645 C 252.032 567.483 250.822 575.143 247.489 581.585 C 245.846 584.761 244.007 587.225 240.821 588.989 C 238.062 589.013 236.309 588.31 234.269 586.291 C 221.32 573.475 232.328 531.682 234.293 515.217 C 235.16 507.711 235.265 500.136 234.606 492.609 C 233.049 475.851 221.315 462.047 221.379 445.348 C 221.405 438.532 223.375 431.494 228.433 426.688 C 236.437 419.083 246.893 417.589 257.416 418.02 C 260.727 420.11 263.377 422.591 266.175 425.294 C 273.395 419.493 281.03 415.583 289.466 411.927 z"/>
<path transform="translate(0,0)" fill="rgb(253,253,253)" d="M 289.727 414.083 C 291.439 413.701 292.988 413.479 294.672 414.119 C 303.311 417.401 314.423 432.438 318.149 440.77 C 315.253 461.479 303.648 478.834 300.527 499.098 C 297.514 518.661 303.156 542.283 294.534 560.319 C 290.501 568.756 277.051 588.527 268.013 591.53 C 266.127 592.156 265.636 592.088 263.883 591.217 C 259.705 581.226 270.7 560.35 273.507 549.857 C 275.707 541.631 277.596 531.348 277.427 522.802 C 277.357 519.281 276.65 517.764 274.214 515.398 C 273.345 515.316 272.183 514.981 271.425 515.418 C 266.886 518.035 265.469 524.588 264.138 529.245 C 260.895 540.031 256.113 549.949 252.372 560.499 C 250.019 567.136 248.836 574.801 245.436 580.973 C 243.891 583.778 242.286 586.199 239.107 587.15 C 238.507 587.011 237.945 586.816 237.415 586.493 C 222.461 577.352 234.732 528.479 236.487 514.299 C 237.333 507.472 237.505 500.201 236.945 493.334 C 235.793 479.212 227.802 467.952 224.647 454.499 C 223.058 447.721 222.437 438.228 226.422 432.13 C 230.542 425.824 238.3 421.808 245.496 420.256 C 250.032 419.277 254.943 418.973 258.957 421.709 C 263.634 424.897 265.298 430.995 266.323 436.259 L 266.419 436.76 C 267.462 433.882 267.138 429.891 267.252 426.816 C 274.124 421.107 281.261 416.962 289.727 414.083 z"/>
<path transform="translate(0,0)" fill="rgb(183,183,185)" d="M 233.138 461.893 C 233.263 461.855 233.384 461.799 233.513 461.78 C 237.346 461.212 243.404 465.958 247.76 466.128 C 256.419 466.466 265.925 463.402 274.633 462.854 C 281.989 462.391 289.109 464.242 296.399 464.261 C 300.232 464.271 304.241 462.814 307.883 464.303 L 291.203 467.888 C 274.566 459.161 257.325 471.808 240.542 466.112 C 237.833 465.192 234.437 464.486 233.138 461.893 z"/>
<path transform="translate(0,0)" fill="rgb(183,183,185)" d="M 263.875 265.435 C 259.202 263.757 251.213 272.585 241.913 270.194 C 234.787 268.731 230.196 263.098 226.175 257.271 C 213.953 239.561 233.628 215.504 235.652 196.428 C 238.817 166.617 234.699 136.996 239.362 107.557 C 240.029 103.345 248.089 94.1864 251.665 91.8721 C 257.098 90.5278 261.412 92.792 263.275 98.0818 C 280.362 101.666 282.174 112.197 288.529 125.897 C 301.113 153.027 295.836 180.275 300.104 208.041 C 302.657 224.654 311.735 229.611 311.092 250.523 C 302.2 262.403 295.006 267.043 282.163 274.03 C 275.707 272.375 269.664 268.706 263.875 265.435 z"/>
<path transform="translate(0,0)" fill="rgb(253,253,253)" d="M 261.469 162.877 C 258.92 143.104 261.144 122.697 252.105 104.204 C 250.713 101.356 249.831 99.0726 249.83 95.8675 C 251.393 93.0031 250.449 93.7692 253.511 92.8131 C 257.117 93.4224 260.216 95.9751 263.275 98.0818 C 257.272 108.563 266.848 124.393 267.137 136.413 C 267.401 147.386 270.221 162.431 265.377 172.565 L 264.02 172.752 C 261.604 169.801 261.758 166.672 261.469 162.877 z"/>
<path transform="translate(0,0)" fill="rgb(253,253,253)" d="M 244.255 100.113 C 262.176 101.863 254.027 165.609 263.042 175.065 C 266.046 175.805 265.001 176.019 267.406 174.621 C 274.796 157.16 267.757 125.187 262.735 107.677 C 261.98 105.046 262.584 103.579 264.059 101.512 C 277.88 96.4705 286.627 127.508 290.027 136.705 C 297.01 156.666 296.706 183.503 296.89 204.925 C 277.133 204.155 257.516 204.867 237.749 205.299 L 237.026 204.221 C 238.307 188.373 239.028 172.485 239.189 156.586 C 239.282 142.929 237.668 110.586 244.255 100.113 z"/>
<path transform="translate(0,0)" fill="rgb(253,253,253)" d="M 253.76 206.384 C 264.172 205.933 287.488 205.813 296.997 207.295 C 310.617 240.887 319.689 252.218 281.821 271.901 C 276.246 269.977 271.774 267.603 266.55 264.957 C 257.771 259.924 264.461 258.677 261.473 250.555 L 259.968 250.203 C 256.233 257.273 264.13 263.776 252.682 267.636 C 240.672 271.685 228.555 262.356 225.257 250.848 C 221.835 238.909 230.032 218.197 236.106 207.31 L 253.76 206.384 z"/>
<path transform="translate(0,0)" fill="rgb(183,183,185)" d="M 1755.35 273.841 C 1747.17 270.134 1732.71 260.858 1728.23 252.536 C 1720.67 238.496 1737.34 218.771 1738.71 203.042 C 1740.33 184.342 1737.69 163.282 1742.69 145.23 C 1745.37 135.553 1753.85 112.493 1760.18 104.243 C 1762.6 101.684 1769.92 100.173 1772.29 98.2784 C 1777.59 94.0483 1779.02 89.8533 1786.88 92.3487 C 1790.32 95.4199 1789.22 94.1071 1790.93 99.0214 L 1791.92 99.0518 C 1792.97 99.3638 1793.96 99.8735 1794.82 100.554 C 1799.77 104.395 1799.93 120.32 1800.1 126.894 C 1800.73 150.978 1799.29 178.642 1802.85 202.346 C 1805.84 214.843 1814.48 228.785 1815.36 241.694 C 1816.73 261.946 1795.01 279.732 1776.25 264.155 C 1769.89 268.074 1762.59 271.971 1755.35 273.841 z"/>
<path transform="translate(0,0)" fill="rgb(253,253,253)" d="M 1790.93 99.0214 L 1791.92 99.0518 L 1794.5 103.094 C 1800.47 112.267 1796.94 155.555 1798.43 169.039 C 1798.9 173.358 1800.57 202.153 1799.89 205.386 C 1782.42 204.54 1757.6 204.002 1740.4 204.937 C 1741.63 181.204 1739.83 156.777 1748.28 134.236 C 1751.09 126.749 1761.67 94.2331 1774 101.448 C 1776.67 109.16 1768.38 128.776 1768.29 137.507 C 1768.21 145.733 1765.29 170.577 1771.9 175.683 C 1782.36 174.005 1778.63 137.257 1781 127.103 C 1783.57 116.086 1783.64 108.909 1790.93 99.0214 z"/>
<path transform="translate(0,0)" fill="rgb(253,253,253)" d="M 1749.76 206.321 C 1758.64 205.657 1793.84 206.403 1801.88 208.001 C 1807.42 218.189 1811.06 229.751 1813.05 241.169 C 1816.26 259.522 1794.47 276.873 1778.32 263.653 C 1778.37 260.495 1778.82 253.594 1776.79 251.458 C 1775.22 254.225 1775.64 258.552 1775.65 261.873 C 1768.57 265.992 1763.71 268.737 1756.13 271.903 C 1748.7 268.068 1731.71 258.271 1729.06 249.931 C 1726.12 240.712 1735.94 216.833 1740.48 208.309 C 1742.46 206.508 1746.88 206.574 1749.76 206.321 z"/>
<path transform="translate(0,0)" fill="rgb(253,253,253)" d="M 1782.47 92.7353 C 1785.73 93.258 1786.36 93.3321 1787.89 96.1202 C 1787.61 101.878 1781.02 114.596 1779.45 122.715 C 1776.37 138.715 1779.13 160.061 1773.65 174.448 C 1766.9 168.505 1770 138.03 1771.66 128.623 C 1773.87 116.075 1778.75 112.31 1775.5 98.9112 C 1776.52 96.2998 1780.03 94.4017 1782.47 92.7353 z"/>
<path transform="translate(0,0)" fill="rgb(183,183,185)" d="M 955.028 80.5478 C 968.125 80.1594 970.221 94.4205 974.666 104.494 C 985.786 129.693 989.462 154.776 988.924 182.17 C 988.713 192.949 988.973 205.12 989.905 215.911 C 993.234 236.259 999.795 256.655 1001.92 277.115 C 1003.7 294.307 974.771 292.108 963.727 292.078 C 947.9 291.874 924.251 290.97 918.156 272.627 C 910.524 249.657 928.514 230.07 935.293 209.916 C 938.129 201.484 936.051 186.616 938.678 177.635 C 941.56 166.06 947.157 156.792 948.932 145.219 C 951.74 126.909 947 96.7829 955.028 80.5478 z"/>
<path transform="translate(0,0)" fill="rgb(253,253,253)" d="M 950.77 206.205 C 965.803 205.249 973.082 206.388 987.269 211.509 C 988.907 224.352 1003.29 277.482 998.024 284.532 C 990.063 290.918 978.089 289.917 968.098 290.003 C 900.643 290.718 913.955 256.567 937.178 211.941 L 950.77 206.205 z"/>
<path transform="translate(0,0)" fill="rgb(253,253,253)" d="M 956.855 81.3508 C 967.18 84.546 969.281 96.8871 973.166 105.629 C 988.324 139.736 986.907 172.347 987.053 208.854 C 980.257 206.636 973.783 205.545 966.789 204.216 C 954.915 202.384 948.802 205.042 938.13 209.314 C 939.275 180.293 942.969 171.612 950.961 144.379 C 955.508 128.884 947.485 97.2887 956.855 81.3508 z"/>
<path transform="translate(0,0)" fill="rgb(183,183,185)" d="M 1074.32 80.5855 C 1086.61 81.514 1084.49 89.7255 1085.31 99.8461 C 1086.58 115.547 1084.47 133.219 1087.87 148.574 C 1090.25 159.317 1096.46 170.637 1098.14 181.828 C 1099.58 191.446 1098.06 202.123 1101.2 211.519 C 1118.94 248.491 1140.21 286.345 1079.96 292.016 L 1066.09 292.15 C 1053.59 292.204 1031.51 293.085 1034.21 274.826 C 1036.64 258.386 1041.18 242.647 1044.32 226.358 C 1049.6 198.942 1044.68 170.684 1049.46 143.14 C 1052.17 128.275 1063.94 90.7294 1074.32 80.5855 z"/>
<path transform="translate(0,0)" fill="rgb(253,253,253)" d="M 1068.79 206.332 C 1080.96 204.519 1087.52 206.622 1098.21 211.95 C 1114.86 242.072 1137.32 283.845 1084.25 289.729 C 1074.87 290.608 1062.22 290.508 1052.73 289.888 C 1036.87 288.85 1034.04 280.365 1037.33 266.17 C 1041.45 248.421 1046 230.128 1048.42 211.99 C 1054.82 208.489 1061.71 207.649 1068.79 206.332 z"/>
<path transform="translate(0,0)" fill="rgb(253,253,253)" d="M 1075.6 81.6084 L 1079.16 82.8642 C 1087.14 89.9651 1081.5 136.65 1085.41 146.874 C 1094.63 170.994 1096.02 183.983 1098.08 209.078 C 1086.34 204.522 1083.67 203.462 1070.77 203.79 C 1062.83 205.348 1056.26 206.733 1048.43 208.833 C 1049.23 202.209 1049.17 186 1049.15 178.959 C 1049.08 152.597 1051.92 132.525 1061.9 107.972 C 1065.88 98.1868 1068 89.587 1075.6 81.6084 z"/>
<path transform="translate(0,0)" fill="rgb(183,183,185)" d="M 1857.14 406.986 C 1865.64 406.312 1875.47 412.561 1883.27 416.524 C 1909.85 404.327 1932.19 411.719 1929.61 444.127 C 1928.55 457.417 1917.63 466.553 1915.96 478.865 C 1914.36 490.685 1920.74 505.841 1923.23 517.515 C 1927.83 533.246 1926.23 549.932 1917.55 563.973 C 1908.2 578.487 1901.53 571.749 1902.02 557.221 C 1902.32 548.034 1901.98 538.368 1900.27 529.299 C 1897.75 523.547 1894.05 513.401 1888.87 510.081 L 1887.7 510.624 C 1885.69 521.584 1904.2 554.869 1893 567.33 C 1877.42 567.613 1852.45 510.378 1850.24 495.456 C 1849.21 488.556 1848.93 473.37 1848.7 465.708 C 1838.84 451.58 1832.33 443.69 1832.96 426.371 C 1839.19 415.497 1845.83 411.415 1857.14 406.986 z"/>
<path transform="translate(0,0)" fill="rgb(253,253,253)" d="M 1859.51 408.219 C 1867.4 409.854 1874.77 414.346 1881.8 418.137 C 1881.73 420.907 1881.54 423.806 1881.93 426.554 C 1882.16 428.253 1882.06 429.225 1883.46 430.266 C 1885.13 426.565 1884.57 422.128 1884.49 418.153 C 1913.12 405.718 1932.83 416.309 1926.5 449.05 C 1924.27 460.556 1912.6 472.214 1913.46 481.541 C 1916.19 510.98 1935.22 539.975 1912.78 567.272 C 1911.01 569.425 1909.43 569.596 1906.98 569.659 C 1903.31 566.453 1904.59 496.455 1885.91 509.649 C 1883.7 515.375 1889.91 530.932 1892.08 537.777 C 1893.85 544.067 1897.01 559.014 1891.88 563.692 C 1888.54 563.517 1886.24 562.522 1884.05 559.82 C 1861.15 531.551 1850.81 502.496 1851.03 467.05 C 1865.34 470.021 1869.43 465.489 1883.37 465.434 C 1888.19 465.414 1897.91 470.54 1902.76 469.104 C 1905.99 468.146 1916.89 464.304 1918.44 462.066 C 1914.6 461.883 1908.18 465.558 1904.23 466.601 C 1898.22 468.193 1890.15 464.318 1883.95 463.824 C 1874.07 463.038 1860.72 468.605 1851.8 464.067 C 1843.63 459.429 1838.78 447.246 1835.72 438.967 C 1829.76 422.81 1846.69 412.236 1859.51 408.219 z"/>
<path transform="translate(0,0)" fill="rgb(183,183,185)" d="M 170.878 405.834 C 176.017 405.575 182.335 409.171 186.623 411.75 C 211.58 426.761 195.747 447.273 184.02 465.15 C 183.492 480.233 183.154 500 176.875 513.643 C 172.383 523.403 151.296 570.977 138.467 564.871 C 129.891 552.35 146.25 522.668 144.111 510.932 L 142.404 510.374 C 139.356 512.337 138.079 515.912 136.473 519.228 C 127.149 536.576 132.431 552.679 128.939 568.932 C 121.462 575.331 116.03 565.108 112.957 559.594 C 97.7224 532.267 116.332 506.649 117.037 478.972 C 117.212 472.089 109.198 463.438 106.651 457.198 C 102.891 448.27 101.112 434.682 104.657 425.367 C 106.765 419.739 111.076 415.214 116.595 412.836 C 127.843 407.953 139.301 411.817 149.858 416.005 C 157.225 411.555 163.04 409.136 170.878 405.834 z"/>
<path transform="translate(0,0)" fill="rgb(253,253,253)" d="M 170.71 407.993 C 179.841 407.827 192.97 417.012 196.765 424.386 C 202.097 434.744 188.138 460.652 178.636 465.14 C 172.047 468.252 156.742 463.162 149.408 463.492 C 133.164 467.106 131.626 468.734 115.908 462.263 C 116.392 462.629 116.888 462.98 117.395 463.315 C 136.767 475.974 133.132 465.985 150.355 465.337 C 162.942 464.862 166.169 470.06 181.883 466.693 C 179.925 508.741 175.651 518.514 152.07 554.976 C 149.507 558.939 146.293 562.526 141.612 563.302 L 139.655 561.694 C 136.788 555.296 138.378 549.074 139.267 542.101 C 141.221 534.597 151.359 512.332 143.965 507.462 C 125.33 510.725 130.104 561.94 126.823 568.236 C 120.785 570.837 117.651 564.754 115.07 559.988 C 99.9533 532.073 118.037 507.169 119.05 479.156 C 119.302 472.184 110.992 462.41 108.335 456.04 C 103.085 442.863 101.454 420.871 117.335 414.275 C 128.193 409.765 137.721 413.348 147.872 417.318 C 147.758 421.884 147.451 425.051 148.66 429.497 L 149.69 430.059 C 151.439 426.211 150.964 421.681 150.904 417.38 C 157.184 413.613 163.817 410.469 170.71 407.993 z"/>
<path transform="translate(0,0)" fill="rgb(183,183,185)" d="M 1881.63 104.805 C 1886.15 100.395 1890.25 95.1147 1896.54 95.0228 C 1907.35 100.418 1905.44 135.228 1906.14 146.35 C 1907.56 169.11 1908.32 192.357 1912.04 214.886 C 1914.28 227.883 1925.32 241.801 1917.3 257.576 C 1914.37 263.19 1909.33 267.401 1903.28 269.272 C 1894.74 271.904 1890.19 269.809 1883.64 264.389 C 1879.01 267.424 1868.47 275.676 1863.21 272.485 L 1861.79 271.637 C 1852 268.482 1843.49 258.878 1837.53 250.895 C 1837.95 228.487 1852.11 213.397 1849.69 187.496 C 1848.09 170.42 1853.58 144.845 1859.69 129.028 C 1864.13 118.308 1868.07 105.391 1881.63 104.805 z"/>
<path transform="translate(0,0)" fill="rgb(253,253,253)" d="M 1850.68 210.183 C 1870.57 209.588 1893.67 203.228 1909.03 213.828 C 1914.28 226.923 1917.69 235.94 1918.73 250.438 C 1912.9 261.043 1897.09 279.835 1886.55 263.103 C 1886.29 260.339 1885.98 253.872 1884.89 251.701 C 1883.35 255.053 1883.63 258.653 1883.61 262.357 C 1878.27 265.446 1868.91 271.573 1863.21 272.485 L 1861.79 271.637 C 1858.45 266.502 1850.42 263.421 1845.78 258.096 C 1833.49 244.001 1845.37 225.905 1850.68 210.183 z"/>
<path transform="translate(0,0)" fill="rgb(253,253,253)" d="M 1877.53 106.726 L 1880.49 106.821 L 1881.75 108.195 C 1882.36 115.47 1876.46 131.512 1876.19 139.744 C 1875.93 147.771 1873.75 169.056 1878.55 174.898 C 1881.46 176.136 1880.34 176.153 1883.12 175.218 C 1889.01 165.45 1884.53 104.272 1899.17 107.8 C 1905.31 115.178 1904.36 154.816 1904.94 167.03 C 1907.25 180.226 1906.96 196.829 1909.48 211.772 C 1893.71 200.679 1871.58 208.488 1851.09 207.803 C 1851.01 185.466 1853.12 116.781 1877.53 106.726 z"/>
<path transform="translate(0,0)" fill="rgb(253,253,253)" d="M 1893.14 96.6452 C 1897.14 97.0877 1896.65 96.4436 1899.42 98.6014 C 1900.1 101.159 1900.46 101.855 1899.51 104.341 C 1883.15 107.409 1885.43 157.771 1882.53 172.592 L 1880.94 173.537 L 1879.45 172.683 C 1877.02 160.668 1877.37 142.619 1879.76 130.565 C 1881.34 122.603 1884.55 113.426 1884.29 105.46 C 1887.42 102.83 1890.31 99.6229 1893.14 96.6452 z"/>
<path transform="translate(0,0)" fill="rgb(183,183,185)" d="M 130.597 94.4477 C 131.073 94.4605 131.4 94.4821 131.882 94.535 L 132.548 94.6131 C 139.979 95.4217 146.395 104.958 154.414 106.234 C 154.903 106.312 159.242 108.677 160.009 109.089 C 163.005 113.642 165.583 119.759 167.792 124.703 C 177.09 145.51 179.564 163.012 179.507 185.622 C 179.493 191.379 180.04 204.753 181.007 210.11 C 183.125 221.839 195.295 239.83 190.175 252.198 C 186.861 260.204 171.667 270.896 163.588 274.072 C 158.103 272.443 151.032 267.674 146.001 264.54 C 144.128 265.801 140.565 268.219 138.611 269.107 C 134.345 271.017 129.488 271.116 125.149 269.381 C 117.378 266.317 111.568 256.904 108.488 249.476 C 110.03 232.37 117.114 222.318 118.836 207.241 C 120.638 188.355 122.15 169.226 123.033 150.32 C 123.64 137.328 123.257 104.701 130.597 94.4477 z"/>
<path transform="translate(0,0)" fill="rgb(253,253,253)" d="M 129.459 106.438 L 132.995 107.42 C 146.218 119.157 138.641 169.383 147.805 176.071 C 150.474 175.999 149.508 176.378 151.476 174.716 C 156.626 153.944 153.086 132.5 147.449 112.695 C 146.757 110.264 147.215 109.043 148.625 107.215 C 160.507 105.189 163.621 121.192 167.329 129.41 C 170.122 135.6 172.339 142.968 174.25 149.517 C 177.999 164.969 177.787 191.251 178.248 207.816 C 155.485 208.389 140.031 200.857 120.639 211.536 C 122.28 191.781 123.601 172.03 124.986 152.276 C 125.854 139.896 124.397 117.104 129.459 106.438 z"/>
<path transform="translate(0,0)" fill="rgb(253,253,253)" d="M 130.937 208.26 C 147.175 206.951 162.27 210.431 178.608 210.147 C 182.578 221.065 193.079 241.371 187.584 252.211 C 183.173 260.913 168.03 274.646 157.526 269.747 L 146.177 262.634 C 146.107 259.939 146.406 255.143 144.943 253.18 C 144.605 254.692 144.218 256.193 143.784 257.681 C 137.452 279.015 118.575 267.559 112.954 252.962 C 108.238 240.713 115.873 225.373 120.205 213.932 C 123.63 211.804 127.324 210.06 130.937 208.26 z"/>
<path transform="translate(0,0)" fill="rgb(253,253,253)" d="M 132.355 95.7722 C 138.407 97.4828 140.369 99.6331 144.135 104.255 C 146.28 122.121 158.367 155.431 148.492 175.25 C 142.242 166.323 146.197 126.015 139.113 113.573 C 134.793 105.988 134.177 107.658 129.238 102.017 C 129.3 99.2601 130.657 97.9729 132.355 95.7722 z"/>
<path transform="translate(0,0)" fill="rgb(183,183,185)" d="M 724.029 46.4082 C 738.942 49.6989 733.047 73.8705 733.99 85.0113 C 737.98 132.168 736.127 181.564 756.068 225.609 C 770.115 256.635 761.149 263.013 733.122 279.399 C 717.719 276.972 699.271 267.274 695.454 251.073 C 692.688 239.336 702.487 228.118 703.5 217.387 C 704.955 201.987 703.873 185.982 704.369 170.513 C 705.167 139.047 706.85 72.7034 724.029 46.4082 z"/>
<path transform="translate(0,0)" fill="rgb(253,253,253)" d="M 724.334 48.0875 C 735.664 52.3924 731.087 74.9605 732.146 85.9232 C 735.896 124.757 733.793 169.995 747.266 207.043 C 740.274 205.291 735.423 203.915 728.133 203.487 C 720.089 203.548 713.726 205.473 706.004 207.439 C 708.766 152.57 702.559 102.222 724.334 48.0875 z"/>
<path transform="translate(0,0)" fill="rgb(253,253,253)" d="M 723.75 205.387 C 730.035 204.054 742.037 207.744 747.855 209.811 C 760.619 245.254 773.574 253.852 734.534 276.408 C 725.775 278.287 708.548 269.197 702.91 262.318 C 692.146 249.184 699.94 235.137 704.508 221.497 C 705.411 218.802 705.943 212.353 706.237 209.361 C 712.708 207.584 717.15 206.454 723.75 205.387 z"/>
<path transform="translate(0,0)" fill="rgb(183,183,185)" d="M 1303.65 46.5252 C 1311.76 48.1241 1314.5 62.2659 1316.22 69.3049 C 1324.17 101.886 1326.53 135.039 1326.61 168.475 C 1326.65 184.346 1326.73 200.582 1327.77 216.406 C 1329.04 233.168 1343.23 241.446 1332.33 258.763 C 1324.33 271.475 1313.76 275.259 1299.87 278.882 C 1296.2 279.349 1291.62 275.799 1288.48 274.056 C 1249.96 252.655 1278.2 228.952 1284.98 198.308 C 1294.57 154.919 1296.41 108.832 1297.01 64.4747 C 1297.1 57.405 1298.6 51.7133 1303.65 46.5252 z"/>
<path transform="translate(0,0)" fill="rgb(253,253,253)" d="M 1303.46 48.1601 L 1306.64 49.8171 C 1311.19 55.2295 1313.62 67.3775 1315.26 74.4413 C 1325.47 118.65 1325.14 162.446 1324.93 207.538 C 1317.93 205.542 1312.43 203.912 1305.09 203.424 C 1297.24 203.629 1291.47 205.293 1284 207.231 C 1296.05 170.336 1295.58 129.947 1298.68 91.5494 C 1299.75 78.2371 1297.01 59.8465 1303.46 48.1601 z"/>
<path transform="translate(0,0)" fill="rgb(253,253,253)" d="M 1301.9 205.455 C 1309.47 204.714 1317.77 207.444 1324.96 209.705 C 1325.67 220.978 1328.37 226.396 1331.76 236.913 C 1339.44 260.779 1321.45 270.822 1301.58 276.616 C 1298.33 276.987 1297.12 276.71 1294.16 275.303 C 1259.73 258.899 1270.21 237.508 1283.97 209.378 C 1291.26 207.188 1294.36 206.333 1301.9 205.455 z"/>
<path transform="translate(0,0)" fill="rgb(183,183,185)" d="M 728.657 421.885 C 735.216 421.44 739.606 423.551 744.863 427.291 C 751.498 432.013 757.063 438.739 758.408 446.949 C 761.501 465.831 746.933 479.548 744.753 496.959 C 743.352 508.145 744.713 520.094 745.246 531.333 C 746.909 566.343 747.77 581.704 738.489 616.064 C 736.223 624.453 734.458 634.197 729.349 641.335 C 727.25 641.334 724.585 640.469 723.085 638.94 C 720.861 636.675 720.21 632.754 719.889 629.693 C 718.75 618.845 721.202 607.743 720.356 596.854 C 719.083 580.466 716.031 564.163 714.162 547.826 C 712.377 532.216 711.887 516.643 711.629 500.946 C 708.505 496.347 705.334 491.73 702.786 486.78 C 697.326 476.173 694.269 462.316 698.095 450.671 C 702.717 436.599 716.188 428.247 728.657 421.885 z"/>
<path transform="translate(0,0)" fill="rgb(253,253,253)" d="M 728.514 423.868 C 731.364 423.356 733.253 423.534 735.925 424.681 C 743.194 427.802 752.312 434.321 755.172 442.011 C 762.213 460.939 746.394 477.79 742.982 495.253 C 740.866 506.082 742.574 518.856 743.074 529.881 C 744.566 562.829 745.574 584.216 736.428 616.408 C 734.206 624.226 732.07 632.185 728.612 639.565 C 728.452 639.522 728.291 639.482 728.132 639.436 C 724.799 638.476 723.344 636.525 722.672 633.149 C 720.411 621.791 723.192 608.535 722.702 596.891 C 721.863 576.983 716.914 556.586 714.91 536.642 C 713.834 525.926 715.606 514.24 713.464 503.794 C 712.135 497.31 708.605 491.99 705.384 486.33 C 699.222 475.503 696.087 463.952 699.538 451.635 C 703.263 438.345 717.22 430.122 728.514 423.868 z"/>
<path transform="translate(0,0)" fill="rgb(183,183,185)" d="M 742.315 458.098 L 742.522 458.817 C 741.766 460.75 740.976 461.612 739.039 462.507 C 730.487 466.46 719.847 463.34 711.573 460.416 L 711.358 459.719 C 714.424 457.824 724.812 466.988 742.315 458.098 z"/>
<path transform="translate(0,0)" fill="rgb(183,183,185)" d="M 1302.29 422.029 C 1305.5 421.605 1308.14 422.012 1311.11 423.308 C 1322.56 428.311 1335.39 438.719 1339.91 450.728 C 1347.94 472.106 1329.17 488.59 1326.12 504.512 C 1323.95 515.818 1325.11 528.286 1324.02 539.835 C 1322.29 558.053 1318.67 576.203 1317.45 594.442 C 1316.62 606.939 1319.82 627.916 1315.01 638.737 C 1312.22 640.142 1311.25 640.821 1308.14 640.58 C 1307.34 640.019 1306.61 639.37 1306.11 638.519 C 1302.47 632.32 1300.48 622.392 1298.54 615.413 C 1289.42 582.726 1291.09 561.106 1292.33 528.292 C 1292.72 518.063 1293.69 507.307 1292.37 497.13 C 1290.01 478.916 1273.68 462.833 1279.74 443.296 C 1282.85 433.247 1293.49 426.515 1302.29 422.029 z"/>
<path transform="translate(0,0)" fill="rgb(253,253,253)" d="M 1302.45 423.883 C 1303.95 423.82 1305.5 423.801 1306.99 424.02 C 1316.43 425.397 1328.79 436.211 1334.06 443.86 C 1341.12 454.12 1340.83 469.021 1335.41 479.994 C 1332.47 485.952 1328.16 491.517 1325.76 497.703 C 1324.57 500.795 1323.91 504.168 1323.56 507.455 C 1322.43 517.942 1323.34 528.52 1322.19 539.077 C 1320.1 558.143 1315.8 577.508 1314.96 596.615 C 1314.37 609.828 1316.49 623.898 1314.15 636.886 C 1312.23 637.993 1311.59 638.33 1309.28 638.36 C 1309.18 638.254 1309.06 638.152 1308.96 638.042 C 1305.19 634.06 1303.17 624.183 1301.62 618.79 C 1292.13 585.831 1292.79 564.834 1294.23 531.237 C 1294.69 520.572 1295.9 509.166 1294.62 498.546 C 1292.05 477.287 1280.26 470.59 1281.07 443.777 C 1286.82 434.298 1292.61 429.023 1302.45 423.883 z"/>
<path transform="translate(0,0)" fill="rgb(183,183,185)" d="M 1295.18 459.122 L 1296.32 458.672 C 1311.04 467.365 1319.1 456.851 1326.57 460.187 C 1318.78 462.974 1308.79 466.368 1300.53 463.374 C 1298.13 462.504 1296.23 461.414 1295.18 459.122 z"/>
<path transform="translate(0,0)" fill="rgb(183,183,185)" d="M 615.198 78.3621 C 618.302 77.6862 618.688 77.6826 621.67 78.7634 C 624.832 81.2528 625.984 85.1707 625.935 89.109 C 625.527 121.96 624.539 153.935 630.052 186.515 C 633.725 208.216 641.116 223.944 649.496 244.166 C 645.623 258.655 627.165 277.248 611.784 277.698 C 595.302 272.803 586.038 260.154 577.64 246.283 C 581.037 229.88 590.847 218.016 592.623 200.508 C 595.273 175.119 600.72 148.87 600.358 123.41 C 600.167 109.963 596.005 96.1005 603.349 83.7695 C 605.581 80.0211 611.252 79.2818 615.198 78.3621 z"/>
<path transform="translate(0,0)" fill="rgb(253,253,253)" d="M 607.769 207.228 C 618.551 206.673 624.266 207.111 633.881 211.977 C 649.016 246.943 654.326 252.031 618.637 274.791 C 603.494 277.908 586.752 260.144 581.446 247.641 C 578.227 240.054 589.508 219.17 593.277 211.929 L 593.753 211.718 C 600.535 208.76 599.961 208.828 607.769 207.228 z"/>
<path transform="translate(0,0)" fill="rgb(253,253,253)" d="M 605.422 115.8 C 606.874 108.187 609.951 84.3882 615.418 80.1894 C 618.458 79.8047 618.827 79.8383 621.573 81.1893 C 624.733 85.365 624.356 97.8915 624.14 103.325 C 622.498 144.617 624.156 168.71 632.486 208.959 C 619.675 203.234 606.45 204.321 593.563 209.148 C 596.039 191.043 598.25 172.902 600.195 154.733 C 601.436 143.466 602.793 127.123 605.318 116.456 L 605.422 115.8 z"/>
<path transform="translate(0,0)" fill="url(#Gradient1)" d="M 605.318 116.456 C 603.734 116.508 603.896 116.885 602.518 118.355 C 600.206 112.104 599.458 83.0188 608.832 81.4557 C 612.841 87.157 601.481 107.099 605.422 115.8 L 605.318 116.456 z"/>
<path transform="translate(0,0)" fill="rgb(183,183,185)" d="M 1402.35 77.9712 C 1417.01 76.6927 1424.21 83.1497 1426.04 97.6567 C 1427.13 106.263 1423.05 118.427 1423.78 126.869 C 1426.2 154.792 1429.37 182.811 1433.77 210.501 C 1435.36 220.49 1449.76 237.046 1445.17 248.886 C 1441.08 259.414 1428.58 270.403 1418.85 275.407 C 1417.97 275.8 1417.08 276.134 1416.16 276.41 C 1401.82 280.761 1380.45 260.135 1376.8 248.233 C 1374.44 240.537 1388.32 214.35 1390.91 204.246 C 1394.56 189.639 1396.98 174.751 1398.14 159.74 C 1399.87 134.796 1397.85 109.571 1399.34 84.6411 C 1399.45 82.8871 1401.4 79.5246 1402.35 77.9712 z"/>
<path transform="translate(0,0)" fill="rgb(253,253,253)" d="M 1406.74 207.191 C 1415.76 206.606 1422.61 207.531 1430.71 211.441 C 1436.32 219.731 1442.42 235.19 1444.83 244.852 C 1439.85 257.98 1428.35 268.679 1415.9 274.803 C 1399.56 278.353 1383.12 258.079 1377.31 244.935 C 1381.23 234.275 1386.35 222.517 1390.58 211.755 C 1398.59 209.024 1397.31 208.646 1406.74 207.191 z"/>
<path transform="translate(0,0)" fill="rgb(253,253,253)" d="M 1402.99 79.6643 C 1406.82 79.7158 1407.94 79.6257 1411.48 80.9626 C 1417.44 86.3212 1429.08 193.464 1431.02 208.875 C 1427.02 207.501 1424.02 206.255 1419.77 205.978 C 1409.71 203.95 1401.29 205.666 1391.76 208.932 C 1396.1 192.618 1398.82 175.917 1399.9 159.07 C 1400.81 146.545 1400.39 85.0582 1402.99 79.6643 z"/>
<path transform="translate(0,0)" fill="rgb(253,253,253)" d="M 1414.93 81.2078 C 1426.54 83.7035 1423.07 108.326 1422.22 116.555 L 1422.12 116.686 L 1421.34 116.691 C 1418.78 104.943 1416.65 93.1078 1414.93 81.2078 z"/>
<path transform="translate(0,0)" fill="rgb(183,183,185)" d="M 1182.72 80.7887 L 1187.59 81.1849 C 1191.58 84.1851 1190.52 89.5243 1189.47 94.6493 C 1184.75 117.76 1194.61 132.909 1197.52 153.656 C 1199.75 173.681 1200.46 195.167 1204.21 214.895 C 1210.13 246.039 1232.01 267.239 1188.19 279.206 C 1178.43 282.13 1165.03 283.276 1157.25 275.512 C 1152.04 262.565 1165.91 177.673 1162.89 158.233 C 1161.39 148.546 1166.69 120.458 1167.32 109.425 C 1167.86 99.7944 1174.52 86.7801 1182.72 80.7887 z"/>
<path transform="translate(0,0)" fill="rgb(253,253,253)" d="M 1182.75 205.488 C 1189.42 204.365 1196.3 208.87 1201.65 212.034 C 1207.8 241.779 1227.94 264.979 1188.96 277.283 C 1178.99 279.172 1166.83 282.047 1158.97 274.162 C 1155.86 267.871 1161.42 219.888 1162.43 209.385 C 1170.53 205.514 1173.91 205.867 1182.75 205.488 z"/>
<path transform="translate(0,0)" fill="rgb(253,253,253)" d="M 1182.41 82.5577 C 1183.88 82.6244 1186.74 82.6595 1187.71 83.5553 C 1190.66 86.2522 1185.84 100.143 1185.74 105.036 C 1185.44 119.324 1193.2 138.003 1195 151.218 C 1197.8 171.683 1197.66 189.341 1201.87 210.001 C 1196.04 206.493 1194.36 205.275 1187.78 203.558 C 1177.01 203.207 1173.2 203.308 1163.02 206.686 C 1163.11 198.397 1163.76 187.127 1164.41 178.695 C 1166.61 150.337 1161.76 104.442 1182.41 82.5577 z"/>
<path transform="translate(0,0)" fill="rgb(183,183,185)" d="M 836.786 80.5423 C 837.616 80.5875 838.278 80.6663 839.092 80.7701 L 839.457 80.8146 C 850.32 82.2189 856.112 102.112 857.544 111.059 C 862.659 141.625 861.256 172.414 863.569 203.172 C 864.863 223.437 867.351 243.567 869.116 263.791 C 869.658 269.996 869.543 274.735 863.682 278.437 C 856.017 283.279 845.563 281.037 837.242 279.474 C 794.202 268.77 812.746 247.286 819.827 218.202 C 825.779 193.757 823.479 163.78 830.28 139.52 C 835.511 120.859 838.782 106.624 833.64 86.9709 C 832.957 84.3597 835.32 82.3016 836.786 80.5423 z"/>
<path transform="translate(0,0)" fill="rgb(253,253,253)" d="M 839.785 205.319 C 848.347 204.733 854.253 205.88 862.053 209.113 C 863.772 227.269 865.581 245.353 866.825 263.55 C 868.105 282.291 854.286 280.119 840.508 278.293 C 827.486 275.181 820.649 273.358 812.616 262.729 C 809.711 248.385 819.506 229.298 822.872 211.673 C 829.114 207.79 832.628 206.446 839.785 205.319 z"/>
<path transform="translate(0,0)" fill="rgb(253,253,253)" d="M 836.064 82.6613 C 865.237 81.4928 858.304 184.04 862.097 206.815 C 853.885 203.94 851.046 203.917 842.35 203.234 C 834.353 203.668 830.457 205.675 823.175 208.881 C 826.963 190.769 826.458 171.027 829.214 152.98 C 831.251 139.643 836.622 126.096 838.501 111.879 C 839.727 102.601 834.018 86.9548 836.064 82.6613 z"/>
<path transform="translate(0,0)" fill="rgb(183,183,185)" d="M 490.544 82.4335 C 504.683 83.5258 504.851 98.4396 506.957 109.638 C 515.107 152.969 517.41 197.618 531.68 239.436 C 537.189 255.581 518.623 274.149 505.994 281.159 C 498.473 282.846 472.739 277.401 469.88 270.482 C 461.335 249.805 467.151 234.008 476.363 215.461 C 478.357 211.447 480.931 193.458 481.63 188.319 C 484.332 168.465 487.9 148.182 488.952 128.16 C 489.791 113.981 486.71 95.9837 490.544 82.4335 z"/>
<path transform="translate(0,0)" fill="rgb(253,253,253)" d="M 500.738 206.2 C 504.606 206.036 518.598 208.447 519.799 210.686 C 523.896 219.563 528.697 232.216 529.513 242.002 C 530.876 258.357 516.981 278.58 499.739 279.631 C 489.845 278.224 474.451 275.874 470.073 265.636 C 462.583 248.12 472.386 228.802 479.274 212.833 C 487.887 208.585 491.218 207.558 500.738 206.2 z"/>
<path transform="translate(0,0)" fill="rgb(253,253,253)" d="M 492.31 83.4704 C 497.601 85.8536 500.406 88.4243 501.8 94.1716 C 504.96 107.199 506.737 120.92 508.852 134.173 L 520.485 208.182 C 514.342 206.315 510.869 205.475 504.544 204.388 C 493.045 205.029 490.024 205.542 479.692 210.38 C 485.167 189.977 488.253 151.007 491.058 129.014 C 492.342 118.941 488.789 93.2103 492.31 83.4704 z"/>
<path transform="translate(0,0)" fill="rgb(183,183,185)" d="M 1530.19 82.5973 C 1532.24 82.7301 1533.53 83.1217 1535.48 83.6281 C 1539.32 91.626 1536.25 127.273 1538.36 140.749 C 1541.66 161.904 1543.47 187.102 1548.19 208.182 C 1551.15 219.608 1557.94 230.301 1559.77 242.034 C 1564.63 273.291 1551.47 277.376 1525.23 281.959 C 1510.67 280.479 1493.93 259.625 1494.07 245.148 C 1494.17 234.525 1500.61 223.485 1502.79 213.266 C 1504.7 204.344 1505.89 194.979 1507.31 185.955 L 1516.67 127.269 C 1519.12 111.998 1519.15 93.5208 1530.19 82.5973 z"/>
<path transform="translate(0,0)" fill="rgb(253,253,253)" d="M 1521.56 206.068 C 1533.45 206.894 1535.84 207.52 1546.6 212.696 C 1554.77 228.612 1563.64 250.366 1555.29 268.015 C 1551.98 275.002 1540.72 276.7 1533.74 278.416 C 1517.95 282.021 1508.28 272.71 1500.3 260.14 C 1490.66 244.96 1501.1 226.299 1505.51 210.631 C 1511.7 208.038 1514.92 207.432 1521.56 206.068 z"/>
<path transform="translate(0,0)" fill="rgb(253,253,253)" d="M 1531.9 83.5814 C 1535.1 86.0209 1534.98 86.3442 1535.47 91.1688 C 1536.48 101.226 1534.13 114.172 1534.99 124.014 C 1537.39 151.58 1541.07 183.08 1546.46 210.164 C 1537.17 205.862 1533.45 205.049 1523.24 204.481 C 1517.67 204.351 1510.88 206.576 1505.52 208.216 C 1509.79 183.093 1513.87 157.937 1517.74 132.749 C 1519.83 119.56 1521.64 103.8 1525.74 91.1257 C 1526.65 88.3093 1529.67 85.5977 1531.9 83.5814 z"/>
<path transform="translate(0,0)" fill="rgb(183,183,185)" d="M 1535.02 417.858 C 1539.17 417.519 1542.27 418.653 1545.88 420.5 C 1555.16 425.235 1571.33 435.716 1574.52 446.335 C 1579.78 463.891 1559.45 475.276 1554.28 489.753 C 1551.51 497.495 1551.78 506.314 1551.82 514.431 C 1551.98 546.842 1558.65 577.571 1542.52 607.345 C 1542.34 607.521 1542.15 607.695 1541.95 607.86 C 1539.7 609.746 1537.88 610.064 1535.08 609.84 C 1525.19 601.707 1523.91 504.76 1519.27 484.951 C 1517.13 475.794 1509.94 467.865 1505.79 459.493 C 1503.45 454.776 1502.26 450.324 1504.08 445.178 C 1508.51 432.594 1523.76 423.476 1535.02 417.858 z"/>
<path transform="translate(0,0)" fill="rgb(253,253,253)" d="M 1534.92 419.813 C 1535.3 419.801 1535.68 419.792 1536.06 419.807 C 1536.27 419.816 1536.47 419.83 1536.68 419.838 C 1539.95 419.955 1542.12 420.821 1544.96 422.322 C 1553.63 426.897 1569.38 436.727 1572.26 446.707 C 1577.38 464.42 1557.39 473.728 1552.6 488.287 C 1549.82 496.705 1549.75 506.074 1549.71 514.856 C 1549.58 544.232 1556.45 578.203 1541.64 604.759 C 1540.02 606.574 1539.05 607.536 1536.63 608.119 L 1535.02 607.006 C 1531.48 599.532 1531.23 589.148 1530.37 580.961 C 1528.31 559.641 1526.46 538.302 1524.81 516.947 C 1523.98 506.866 1524 495.657 1521.71 485.845 C 1518.8 473.38 1502.61 459.251 1505.67 446.461 C 1508.37 435.179 1525.59 425.485 1534.92 419.813 z"/>
<path transform="translate(0,0)" fill="rgb(183,183,185)" d="M 1551.49 460.743 L 1553.16 461.452 L 1552.74 463.001 L 1552.45 461.156 C 1551.67 463.563 1551.38 464.074 1549.09 465.272 C 1540.5 469.747 1530.92 466.892 1522.36 464.142 L 1521.37 463.99 L 1521.59 462.759 C 1527.01 463.061 1531.46 465.371 1536.66 466.097 C 1542.78 466.951 1546.97 464.369 1551.49 460.743 z"/>
<path transform="translate(0,0)" fill="rgb(183,183,185)" d="M 499.87 417.837 C 507.257 417.15 515.52 423.061 521.193 427.297 C 527.328 431.879 536.194 439.3 537.189 447.418 C 538.838 460.87 524.533 471.883 521.481 484.464 C 515.288 509.995 517.083 595.626 505.264 611.193 C 503.963 610.841 502.649 610.363 501.507 609.631 C 481.36 596.713 492.258 514.688 486.879 490.633 C 484.328 479.222 474.843 472.334 469.841 462.368 C 468.002 458.705 467.184 454.266 466.256 450.292 C 471.491 434.309 485.608 425.275 499.87 417.837 z"/>
<path transform="translate(0,0)" fill="rgb(253,253,253)" d="M 499.895 420.026 C 502.591 419.634 505.177 420.046 507.64 421.193 C 516.651 425.387 530.993 435.064 534.366 444.931 C 538.795 457.883 522.617 471.819 519.547 483.879 C 512.232 512.621 515.304 588.157 504.773 609.549 C 483.514 602.146 494.365 510.477 488.87 488.986 C 486.313 478.984 477.802 471.781 472.672 463.145 C 469.802 458.313 468.131 452.505 469.693 446.939 C 472.965 435.277 489.988 425.835 499.895 420.026 z"/>
<path transform="translate(0,0)" fill="rgb(183,183,185)" d="M 486.784 460.682 C 491.682 461.32 493.732 465.809 499.012 466.088 C 505.983 466.456 515.667 460.715 521.901 463.34 C 515.728 465.281 507.517 468.188 501.06 467.991 C 494.227 467.783 491.236 465.41 486.784 460.682 z"/>
<path transform="translate(0,0)" fill="rgb(183,183,185)" d="M 618.924 425.779 C 622.006 426.101 624.916 427.617 627.552 429.181 C 639.158 436.064 646.328 447.924 649.514 460.719 C 645.779 471.414 637.95 481.351 635.167 492.048 C 632.757 501.31 633.477 511.772 633.017 521.314 C 631.837 545.792 631.825 571.726 628.293 595.916 C 626.912 605.375 624.148 616.224 616.116 622.165 C 609.704 617.641 607.163 611.825 605.439 604.333 C 602.591 591.958 603.75 578.141 603.866 565.483 C 604.049 545.355 604.319 523.24 600.743 503.403 C 598.375 490.27 590.056 481.776 585.644 469.803 C 583.67 464.447 583.647 459.107 586.093 453.89 C 591.457 442.448 607.226 429.943 618.924 425.779 z"/>
<path transform="translate(0,0)" fill="rgb(253,253,253)" d="M 617.365 427.911 C 623.019 428.122 626.884 430.556 631.158 433.992 C 638.148 439.612 645.589 449.111 646.479 458.34 C 647.8 472.028 633.696 483.295 631.987 497.04 C 628.314 526.59 634.017 599.603 616.193 620.541 C 614.772 619.216 613.394 617.818 612.284 616.217 C 608.427 610.649 607.038 602.397 606.363 595.799 C 603.129 564.217 609.128 530.939 602.172 499.538 C 599.233 486.267 583.389 472.436 586.273 458.629 C 589.033 445.415 606.757 434.835 617.365 427.911 z"/>
<path transform="translate(0,0)" fill="rgb(183,183,185)" d="M 601.827 462.09 C 603.783 463.344 605.766 464.507 607.917 465.393 C 616.388 468.882 622.138 466.06 630.035 462.78 L 630.978 463.943 C 626.42 467.513 619.403 468.54 613.852 469.735 C 612.751 469.379 611.655 469.007 610.565 468.62 C 606.761 467.261 603.643 465.937 601.827 462.09 z"/>
<path transform="translate(0,0)" fill="rgb(183,183,185)" d="M 1417.79 425.786 C 1422.15 425.694 1426.9 428.821 1430.42 431.128 C 1438.92 436.706 1452.88 447.999 1454.83 458.699 C 1457.28 472.157 1441.21 488.282 1438.33 501.597 C 1433.94 521.862 1435.04 549.44 1435.21 570.273 C 1435.3 581.14 1435.94 592.213 1433.73 602.918 C 1432.38 609.455 1430.09 614.632 1426.43 620.182 C 1424.58 621.01 1423.14 620.815 1421.21 620.604 C 1404.21 611.187 1408.36 515.098 1404.27 493.418 C 1402.26 482.786 1393.72 472.065 1389.92 461.571 C 1390.32 459.318 1390.74 457.053 1391.36 454.848 C 1395.06 441.594 1406.32 432.245 1417.79 425.786 z"/>
<path transform="translate(0,0)" fill="rgb(253,253,253)" d="M 1417.33 427.817 C 1419.22 427.861 1421 428.095 1422.76 428.8 C 1432.83 432.821 1447.67 445.336 1451.79 455.571 C 1457.41 469.562 1441.47 484.15 1437.61 496.914 C 1435.26 504.669 1434.86 513.723 1434.34 521.775 C 1433.61 533.198 1432.92 544.668 1432.94 556.118 C 1432.97 571.409 1434.35 587.447 1431.69 602.537 C 1430.76 607.794 1428.77 612.582 1426.68 617.468 C 1424.96 618.586 1424.07 618.751 1422.05 618.655 C 1406.37 609.158 1410.57 515.292 1406.68 494.782 C 1404.37 482.595 1395.37 472.361 1391.89 460.214 C 1392.16 458.714 1392.48 457.225 1392.87 455.75 C 1396.18 443.244 1406.63 434.098 1417.33 427.817 z"/>
<path transform="translate(0,0)" fill="rgb(183,183,185)" d="M 1404.62 461.082 C 1409.85 462.68 1414.81 466.306 1420.3 467.063 C 1426.56 467.925 1431.89 463.002 1437.28 463.554 C 1432.8 467.544 1427.58 469.179 1421.65 468.849 C 1415.56 468.51 1408.73 465.66 1404.62 461.082 z"/>
<path transform="translate(0,0)" fill="rgb(183,183,185)" d="M 849.239 419.629 C 855.156 418.907 862.19 418.617 868.034 419.854 C 871.804 420.652 875.652 422.238 877.765 425.647 C 885.973 438.89 869.909 472.242 867.581 487.121 C 866.011 497.158 867.453 507.999 868.095 518.071 C 869.487 539.898 871.441 564.794 866.316 586.268 C 863.843 596.628 858.341 606.865 849.1 612.559 C 848.963 612.349 848.826 612.138 848.701 611.921 C 848.628 611.795 848.559 611.667 848.486 611.541 C 842.117 600.547 847.272 580.852 846.499 568.276 C 845.784 556.654 842.489 544.434 840.697 532.877 C 838.794 520.599 838.088 507.774 835.325 495.682 C 831.695 479.797 818.372 463.712 817.992 447.652 C 817.743 437.081 821.925 430.351 829.037 422.881 C 835.667 420.959 842.364 420.029 849.239 419.629 z"/>
<path transform="translate(0,0)" fill="rgb(253,253,253)" d="M 849.755 421.299 C 852.821 421.142 855.899 420.989 858.97 420.988 C 864.036 420.986 871.483 421.331 875.18 425.238 C 880.057 430.39 877.241 443.667 875.9 449.747 C 872.973 463.019 866.84 476.509 865.151 489.82 C 863.769 500.71 865.582 512.13 866.267 523.064 C 867.071 536.194 867.295 549.354 866.937 562.503 C 866.253 581.054 863.865 597.005 849.652 610.2 C 845.379 604.471 849.219 576.26 848.581 567.591 C 847.804 557.019 844.923 546.228 843.271 535.731 C 840.747 519.698 839.909 502.689 835.013 487.145 C 830.998 474.399 821.796 462.937 820.158 449.485 C 819.34 442.775 820.821 435.214 825.148 429.875 C 831.271 422.319 840.891 422.088 849.755 421.299 z"/>
<path transform="translate(0,0)" fill="rgb(183,183,185)" d="M 864.671 460.944 L 864.818 462.679 C 862.697 465.552 858.723 467.208 855.649 468.92 C 847.724 469.624 842.341 469.538 835.446 465.13 L 836.395 464.19 C 839.977 465.638 843.639 467.114 847.481 467.695 C 854.141 468.704 859.615 464.632 864.671 460.944 z"/>
<path transform="translate(0,0)" fill="rgb(183,183,185)" d="M 1177.24 419.658 C 1178.87 419.461 1180.51 419.326 1182.15 419.253 C 1193.54 418.755 1210.61 418.775 1219.4 427.076 C 1225.14 432.494 1226.23 441.616 1225.4 449.111 C 1223.84 463.119 1214.75 475.707 1210.55 489.048 C 1206.39 502.245 1205.73 516.694 1203.63 530.344 C 1201.64 543.291 1198.55 556.23 1197.71 569.323 C 1197.13 578.238 1197.82 587.3 1198.15 596.228 C 1198.22 598.833 1198.36 601.527 1198.17 604.126 C 1197.96 606.853 1197.06 608.422 1195.04 610.208 C 1193.41 610.269 1192.55 610.47 1191.1 609.559 C 1164.8 593.066 1178.57 519.072 1176.69 491.809 C 1175.74 478.142 1169.59 465.212 1166.49 451.935 C 1164.79 444.617 1162.07 431.904 1166.5 425.122 C 1168.87 421.497 1173.26 420.418 1177.24 419.658 z"/>
<path transform="translate(0,0)" fill="rgb(253,253,253)" d="M 1178.78 421.303 C 1179.67 421.208 1180.56 421.136 1181.45 421.085 C 1192.03 420.535 1209.51 420.154 1217.61 427.805 C 1223.16 433.048 1224.07 442.334 1223.24 449.546 C 1221.64 463.421 1212.78 475.57 1208.68 488.749 C 1204.76 501.325 1203.78 514.835 1201.94 527.833 C 1198.6 551.46 1194.9 568.251 1195.91 592.65 C 1196.02 595.875 1196.73 601.281 1195.74 604.276 C 1195.11 606.189 1194.52 606.51 1192.79 607.435 C 1192.01 607.224 1191.28 606.952 1190.6 606.504 C 1188.07 604.827 1185.93 600.764 1184.55 598.096 C 1168.43 567.003 1181.62 524.737 1178.88 491.6 C 1177.73 477.648 1171.24 463.78 1168.13 450.08 C 1166.77 444.107 1164.05 431.447 1167.81 425.945 C 1170.16 422.506 1175.01 421.98 1178.78 421.303 z"/>
<path transform="translate(0,0)" fill="rgb(183,183,185)" d="M 1177.54 460.736 C 1185.31 464.473 1194.46 470.783 1203.26 465.569 C 1205.82 464.057 1206.65 462.729 1209.8 462.857 C 1208.9 463.966 1207.87 465.037 1206.81 465.982 C 1203.47 468.949 1197.83 470.03 1193.48 469.653 C 1186.69 469.063 1181.82 465.832 1177.54 460.736 z"/>
<path transform="translate(0,0)" fill="rgb(183,183,185)" d="M 954.226 418.595 C 962.122 417.414 974.249 416.405 981.78 419.161 C 983.64 419.842 985.264 420.92 986.095 422.769 C 990.796 433.241 983.245 455.444 980.253 466.222 C 977.104 477.567 973.059 489.114 971.741 500.836 C 968.416 530.406 972.989 563.559 961.688 591.724 C 960.487 592.598 958.92 593.93 957.477 594.292 C 955.4 594.813 954.443 593.984 952.79 592.96 C 951.317 590.609 950.632 588.356 950.32 585.604 C 949.319 576.792 949.696 567.406 949.432 558.52 C 948.914 541.057 948.092 523.427 945.796 506.105 C 942.952 484.652 935.309 463.715 933.182 443.073 C 932.534 436.786 932.329 429.587 936.671 424.477 C 941.044 419.332 948.01 419.175 954.226 418.595 z"/>
<path transform="translate(0,0)" fill="rgb(253,253,253)" d="M 955.748 420.289 C 959.748 420.144 963.75 420.027 967.752 419.938 C 973.045 419.83 980.044 419.377 984.072 423.248 C 989.481 441.303 974.898 475.113 970.808 493.487 C 968.869 502.195 968.979 511.792 968.573 520.686 C 967.529 543.534 967.399 566.851 961.052 588.996 C 959.597 590.9 958.597 591.858 956.354 592.739 L 954.478 591.817 C 950.413 584.79 950.445 525.018 948.729 510.78 C 946.074 488.752 938.435 467.779 935.624 446.034 C 934.944 440.772 934.09 430.355 937.668 425.947 C 941.903 420.729 949.623 420.813 955.748 420.289 z"/>
<path transform="translate(0,0)" fill="rgb(183,183,185)" d="M 945.281 463.006 C 946.847 462.199 950.039 463.807 951.731 464.322 C 958.171 466.284 964.688 466.345 970.714 463.117 C 971.296 462.805 972.328 463.074 972.997 463.134 C 972.823 463.644 972.817 463.87 972.402 464.247 C 969.006 467.328 962.485 467.614 958.081 467.36 C 953.815 467.114 948.27 466.363 945.281 463.006 z"/>
<path transform="translate(0,0)" fill="rgb(183,183,185)" d="M 1057.84 418.072 C 1065.34 417.732 1072.96 417.778 1080.46 418.068 C 1086.89 418.317 1097.18 418.795 1101.76 423.952 C 1105.67 428.36 1106.3 434.407 1105.93 440.045 C 1104.57 460.864 1096.69 481.525 1093.59 502.318 C 1089.63 528.868 1090.42 555.493 1088.86 582.189 C 1088.22 585.069 1088.43 588.466 1087.31 591.196 C 1086.42 593.372 1085.03 593.794 1083.03 594.668 C 1080.37 594.03 1079.06 593.447 1077.57 590.971 C 1065.16 570.475 1072.04 517.962 1066.37 493.853 C 1062.32 476.626 1048.21 439.731 1052.1 423.951 C 1052.86 420.885 1055.28 419.592 1057.84 418.072 z"/>
<path transform="translate(0,0)" fill="rgb(253,253,253)" d="M 1056.9 420.182 C 1062.22 419.918 1067.6 419.929 1072.92 419.931 C 1080.46 419.934 1094.7 419.133 1100.19 424.942 C 1104.1 429.078 1104.27 435.546 1103.9 440.902 C 1102.78 457.258 1096.49 472.867 1093.72 488.965 C 1088.47 519.404 1087.25 550.41 1086.92 581.25 C 1086.96 583.203 1086.78 585.712 1086.31 587.618 C 1085.77 589.754 1084.75 591.37 1082.84 592.484 C 1082.16 592.88 1081.28 592.378 1080.54 592.165 C 1068.49 578.857 1072.18 516.332 1068.59 495.703 C 1064.73 473.568 1054.59 452.673 1053.73 429.874 C 1053.57 425.598 1054.01 423.325 1056.9 420.182 z"/>
<path transform="translate(0,0)" fill="rgb(183,183,185)" d="M 1064.14 461.793 C 1069.19 462.346 1073.38 466.066 1078.74 466.149 C 1083.63 466.224 1089.46 462.123 1093.76 463.041 C 1093.66 463.208 1093.57 463.389 1093.44 463.543 C 1090.91 466.616 1083.55 467.544 1079.69 467.526 C 1073.47 467.497 1068.62 466.313 1064.14 461.793 z"/>
</svg>