<svg width="39" height="96" viewBox="0 0 39 96" fill="none" xmlns="http://www.w3.org/2000/svg">
<path d="M17.3955 0.00348774C23.2789 -0.170907 24.2205 6.23245 26.2172 10.7555C31.2126 22.0701 32.8639 33.3326 32.6222 45.6327C32.5274 50.4726 32.6442 55.9375 33.0629 60.7827C34.5583 69.9191 37.5057 79.0771 38.4602 88.2638C39.2599 95.9832 26.2644 94.9958 21.3032 94.9824C14.1934 94.8908 3.56988 94.4849 0.83189 86.2487C-2.59655 75.935 5.48491 67.1402 8.53016 58.0909C9.80415 54.3049 8.87065 47.629 10.0507 43.5965C11.3454 38.3992 13.8597 34.2378 14.657 29.0414C15.9185 20.8201 13.7892 7.29319 17.3955 0.00348774Z" fill="#B7B7B9"/>
<path d="M15.4827 56.4246C22.2358 55.9954 25.5056 56.5068 31.8787 58.8062C32.6145 64.5728 39.0756 88.4286 36.7101 91.5941C33.1338 94.4615 27.7549 94.012 23.2668 94.0507C-7.03529 94.3717 -1.05531 79.0376 9.3769 59.0001L15.4827 56.4246Z" fill="#FDFDFD"/>
<path d="M18.2162 0.36404C22.8544 1.79871 23.7982 7.33997 25.5434 11.2652C32.3527 26.5795 31.7161 41.2221 31.7817 57.6141C28.7288 56.6182 25.8206 56.1283 22.6788 55.5316C17.3447 54.709 14.5987 55.9024 9.8046 57.8206C10.319 44.7899 11.9784 40.8921 15.5685 28.6642C17.6111 21.7068 14.007 7.52029 18.2162 0.36404Z" fill="#FDFDFD"/>
</svg>
