<svg width="27" height="91" viewBox="0 0 27 91" fill="none" xmlns="http://www.w3.org/2000/svg">
<path d="M12.151 0C12.5239 0.0202952 12.8212 0.0556798 13.1869 0.102287L13.3509 0.122265C18.2307 0.752808 20.8326 9.68498 21.4759 13.7023C23.7737 27.4267 23.1434 41.2512 24.1824 55.0618C24.7637 64.1609 25.8814 73.1995 26.6743 82.2802C26.9178 85.0663 26.8661 87.1942 24.2332 88.8564C20.79 91.0305 16.0938 90.0238 12.3559 89.322C-6.97851 84.5158 1.35181 74.8693 4.53273 61.8104C7.20648 50.8344 6.17328 37.3744 9.22842 26.4815C11.5783 18.1025 13.0477 11.7109 10.7378 2.8865C10.431 1.71405 11.4925 0.789941 12.151 0Z" fill="#B7B7B9"/>
<path d="M13.4982 56.0258C17.3444 55.7627 19.9975 56.2777 23.5014 57.7293C24.2736 65.8815 25.0863 74.0014 25.6451 82.172C26.2201 90.5869 20.0123 89.6116 13.823 88.7917C7.97328 87.3944 4.90198 86.5759 1.29341 81.8034C-0.0115701 75.3628 4.38852 66.7926 5.90059 58.8788C8.70461 57.1353 10.2832 56.5318 13.4982 56.0258Z" fill="#FDFDFD"/>
<path d="M11.8267 0.951451C24.9318 0.426784 21.8173 46.4713 23.5212 56.6975C19.8322 55.4066 18.5569 55.3963 14.6505 55.0896C11.0581 55.2845 9.30792 56.1856 6.03671 57.6252C7.73835 49.4927 7.5115 40.6284 8.74955 32.5251C9.6646 26.5367 12.0774 20.454 12.9214 14.0704C13.4722 9.90454 10.9076 2.87927 11.8267 0.951451Z" fill="#FDFDFD"/>
</svg>
