<svg width="31" height="105" viewBox="0 0 31 105" fill="none" xmlns="http://www.w3.org/2000/svg">
<path d="M13.0566 0C19.7558 1.47755 17.1076 12.3308 17.5313 17.3331C19.3236 38.5069 18.4912 60.6861 27.4491 80.4627C33.7593 94.3936 29.7316 97.2574 17.1413 104.615C10.222 103.525 1.93483 99.1706 0.220161 91.8962C-1.02238 86.6262 3.37953 81.5892 3.83458 76.7709C4.4882 69.8562 4.00215 62.6698 4.22496 55.7241C4.58344 41.5956 5.33946 11.8068 13.0566 0Z" fill="#B7B7B9"/>
<path d="M13.1936 0.754023C18.2833 2.68696 16.2272 12.8202 16.7029 17.7426C18.3875 35.1793 17.4428 55.4915 23.4951 72.1264C20.3542 71.3397 18.175 70.7219 14.9002 70.5297C11.2867 70.5571 8.42831 71.4214 4.95944 72.3042C6.20018 47.6676 3.41186 25.0609 13.1936 0.754023Z" fill="#FDFDFD"/>
<path d="M12.9313 71.3828C15.7546 70.7843 21.1461 72.4411 23.7597 73.3692C29.4935 89.2835 35.3132 93.144 17.7757 103.272C13.841 104.116 6.10225 100.034 3.56956 96.9453C-1.26584 91.0481 2.23539 84.7408 4.28742 78.6164C4.69306 77.4063 4.93205 74.5106 5.06412 73.1672C7.97101 72.3693 9.96644 71.8619 12.9313 71.3828Z" fill="#FDFDFD"/>
</svg>
