<svg width="33" height="90" viewBox="0 0 33 90" fill="none" xmlns="http://www.w3.org/2000/svg">
<path d="M16.8718 0.209521C18.2661 -0.0939639 18.4395 -0.0955811 19.7791 0.389707C21.1995 1.50747 21.717 3.26664 21.695 5.03497C21.5117 19.7853 21.0679 34.1424 23.5444 48.7711C25.1944 58.515 28.5146 65.577 32.279 74.6569C30.5392 81.1626 22.2476 89.511 15.3381 89.713C7.93409 87.5151 3.77254 81.8356 0 75.6074C1.526 68.2424 5.93282 62.9153 6.73063 55.0541C7.92106 43.6542 10.3679 31.8682 10.2053 20.4364C10.1195 14.3986 8.2499 8.17421 11.549 2.63749C12.5516 0.954427 15.0991 0.622474 16.8718 0.209521Z" fill="#B7B7B9"/>
<path d="M13.5345 58.0714C18.378 57.8222 20.9452 58.0189 25.2645 60.2038C32.0634 75.9038 34.4488 78.1883 18.4166 88.4078C11.6141 89.8073 4.09325 81.8311 1.7097 76.2172C0.263662 72.8106 5.3313 63.4335 7.0244 60.1822L7.23823 60.0875C10.2848 58.7593 10.027 58.7898 13.5345 58.0714Z" fill="#FDFDFD"/>
<path d="M12.4802 17.0195C13.1324 13.6012 14.5147 2.91529 16.9706 1.02999C18.3362 0.857261 18.502 0.872348 19.7355 1.47896C21.155 3.35388 20.9857 8.97839 20.8887 11.4181C20.151 29.9585 20.8959 40.7765 24.6378 58.8486C18.8829 56.2781 12.942 56.7661 7.15289 58.9335C8.26516 50.8042 9.25839 42.6587 10.1321 34.5007C10.6896 29.4417 11.2992 22.1036 12.4335 17.314L12.4802 17.0195Z" fill="#FDFDFD"/>
<path d="M12.4335 17.314C11.7219 17.3374 11.7947 17.5066 11.1757 18.1667C10.1371 15.3599 9.80103 2.30042 14.012 1.59858C15.8129 4.15851 10.7098 13.1126 12.4802 17.0195L12.4335 17.314Z" fill="url(#paint0_linear_1_116)"/>
<defs>
<linearGradient id="paint0_linear_1_116" x1="15.8754" y1="12.4989" x2="8.92641" y2="5.76251" gradientUnits="userSpaceOnUse">
<stop stop-color="#E5DEE6"/>
<stop offset="1" stop-color="#FFFFFD"/>
</linearGradient>
</defs>
</svg>
