<svg width="31" height="90" viewBox="0 0 31 90" fill="none" xmlns="http://www.w3.org/2000/svg">
<path d="M11.1544 0C17.5059 0.490452 17.5814 7.18687 18.5274 12.2151C22.1885 31.671 23.2231 51.7188 29.6334 70.4955C32.1082 77.7447 23.768 86.0819 18.0948 89.2294C14.7162 89.9869 3.15604 87.5421 1.87173 84.4354C-1.96685 75.1512 0.645811 68.0582 4.78401 59.7305C5.67976 57.9282 6.83604 49.8509 7.15005 47.5435C8.36384 38.6289 9.96665 29.5216 10.4392 20.5316C10.8161 14.1651 9.43208 6.08416 11.1544 0Z" fill="#B7B7B9"/>
<path d="M15.7337 55.5722C17.4713 55.4986 23.7568 56.5811 24.2963 57.5865C26.1367 61.5723 28.2934 67.2536 28.66 71.6476C29.2723 78.9911 23.0304 88.0714 15.285 88.5434C10.8404 87.9116 3.9251 86.8564 1.95842 82.2595C-1.40623 74.3946 2.99746 65.7207 6.09168 58.5505C9.9608 56.6431 11.4572 56.182 15.7337 55.5722Z" fill="#FDFDFD"/>
<path d="M11.9477 0.465572C14.3245 1.53565 15.5846 2.68992 16.2108 5.2705C17.6303 11.1199 18.4286 17.2808 19.3787 23.2315L24.6044 56.4621C21.8449 55.6238 20.2848 55.2467 17.4434 54.7586C12.2779 55.0464 10.9208 55.2768 6.27945 57.4491C8.73892 48.2879 10.1252 30.7901 11.3853 20.915C11.9621 16.3922 10.366 4.83887 11.9477 0.465572Z" fill="#FDFDFD"/>
</svg>
