<svg width="44" height="90" viewBox="0 0 44 90" fill="none" xmlns="http://www.w3.org/2000/svg">
<path d="M18.2393 0.106171C20.0415 0.0315902 21.939 -0.190535 23.6295 0.373061C29.3561 5.95168 32.0851 5.26119 35.8154 13.9486C37.5202 17.8801 38.7174 22.0128 39.3782 26.2465C40.5726 33.9968 40.1081 44.729 40.9464 52.7654C41.7761 59.8687 42.9553 66.8651 43.6821 73.9864C44.3771 80.7983 38.7807 87.1774 32.741 89.6101C28.2919 88.5742 24.8482 87.2223 20.6368 85.5533C19.1674 84.3414 16.8121 86.8887 15.5386 87.9092C-7.10565 91.9687 1.04723 63.7355 3.19314 51.914C4.6266 44.0155 0.301066 5.82317 8.9912 4.0442C11.4237 4.75893 12.3828 6.6858 13.5845 8.76835C14.7143 4.69063 15 2.89923 18.2393 0.106171Z" fill="#B7B7B9"/>
<path d="M7.60178 4.85084C7.71139 4.86247 7.82055 4.8741 7.93016 4.88573L8.11974 4.91406C17.9167 6.28776 12.7 36.9149 20.5137 40.7827C29.1513 38.7751 23.5675 8.4738 27.3414 5.26869C33.6533 4.69104 38.239 23.8191 38.827 28.9252C38.9748 37.3006 39.7331 47.6112 40.3027 56.0225C28.5408 52.0465 15.3014 54.3149 3.55252 57.4768C4.76317 44.0959 2.73899 13.7173 7.60178 4.85084Z" fill="#FDFDFD"/>
<path d="M23.0801 55.0652C30.1355 54.1267 34.0266 54.7428 40.4936 57.1715C41.1274 61.4038 43.9831 76.1829 42.2222 79.533C35.8787 91.6037 29.1495 88.8984 19.2442 83.7456L19.255 77.6516C19.2738 77.2314 19.1238 76.7851 19.0173 76.3693C18.2191 76.9058 18.4967 80.7678 18.1566 82.3456C16.313 90.9041 5.98729 88.1346 2.40072 81.8167C-1.72041 74.5562 1.33383 66.2352 3.22594 58.6294C10.5513 56.1643 15.4937 55.5775 23.0801 55.0652Z" fill="#FDFDFD"/>
<path d="M20.3448 0.535107C21.3407 0.66047 25.195 1.22402 25.1195 2.76259C24.8554 8.14737 26.4546 38.6508 20.4216 39.8519C16.9675 33.4512 9.70367 3.06168 20.3448 0.535107Z" fill="#FDFDFD"/>
</svg>
