<svg width="40" height="82" viewBox="0 0 40 82" fill="none" xmlns="http://www.w3.org/2000/svg">
<path d="M18.7212 78.1016C16.622 77.3482 13.0332 81.312 8.85546 80.2384C5.65433 79.5815 3.59197 77.0523 1.78566 74.4359C-3.70469 66.484 5.13369 55.6821 6.04291 47.1169C7.46468 33.7315 5.6148 20.4314 7.70951 7.21303C8.00914 5.32181 11.6298 1.20952 13.2362 0.170379C15.6769 -0.433223 17.6148 0.583422 18.4517 2.95859C26.1275 4.56792 26.9415 9.29643 29.7962 15.4478C35.4492 27.6294 33.0787 39.864 34.996 52.3312C36.1428 59.7906 40.2208 62.0163 39.932 71.406C35.9375 76.7402 32.7058 78.8236 26.9365 81.9608C24.0364 81.2177 21.3217 79.5703 18.7212 78.1016Z" fill="#B7B7B9"/>
<path d="M17.6404 32.0522C16.4953 23.1739 17.4944 14.011 13.4339 5.70751C12.8086 4.42873 12.4124 3.40346 12.4119 1.96435C13.1141 0.678206 12.69 1.02219 14.0655 0.592896C15.6854 0.866476 17.0775 2.01266 18.4517 2.95859C15.755 7.66474 20.0567 14.7725 20.1866 20.1696C20.3052 25.0966 21.572 31.8519 19.396 36.4022L18.7864 36.4861C17.701 35.1611 17.7702 33.7562 17.6404 32.0522Z" fill="#FDFDFD"/>
<path d="M9.90755 3.87061C17.958 4.65638 14.2973 33.2789 18.347 37.5247C19.6965 37.857 19.227 37.9531 20.3074 37.3253C23.6271 29.4852 20.4651 15.1291 18.2091 7.26691C17.8699 6.08557 18.1413 5.42688 18.8039 4.49878C25.0125 2.2351 28.9418 16.1712 30.4692 20.3007C33.6061 29.2634 33.4695 41.3134 33.5522 50.9321C24.677 50.5864 15.8646 50.906 6.98492 51.1L6.66014 50.616C7.23559 43.5001 7.55947 36.3663 7.6318 29.2275C7.67358 23.0954 6.94854 8.57308 9.90755 3.87061Z" fill="#FDFDFD"/>
<path d="M14.1774 51.5872C18.8546 51.3847 29.3286 51.3308 33.6002 51.9962C39.7186 67.0793 43.7939 72.167 26.7829 81.0049C24.2785 80.141 22.2696 79.075 19.9229 77.887C15.9792 75.6271 18.9844 75.0672 17.6422 71.4203L16.9661 71.2623C15.2883 74.4368 18.8358 77.3567 13.6931 79.0899C8.29799 80.9079 2.8548 76.7191 1.37328 71.5519C-0.163945 66.1912 3.5183 56.8913 6.24686 52.003L14.1774 51.5872Z" fill="#FDFDFD"/>
</svg>
