<svg width="38" height="81" viewBox="0 0 38 81" fill="none" xmlns="http://www.w3.org/2000/svg">
<path d="M9.93178 0C10.1456 0.00574731 10.2925 0.0154473 10.509 0.0391999L10.8082 0.074265C14.1464 0.437333 17.0285 4.71921 20.6308 5.29215C20.8505 5.32717 22.7997 6.38908 23.1442 6.57407C24.4901 8.6184 25.6481 11.365 26.6405 13.5849C30.8173 22.9274 31.9287 30.786 31.9031 40.938C31.8968 43.523 32.1425 49.528 32.5769 51.9334C33.5283 57.1998 38.9953 65.2779 36.6953 70.8312C35.2066 74.426 28.3812 79.2268 24.752 80.6528C22.288 79.9214 19.1116 77.7801 16.8515 76.3729C16.0102 76.9391 14.4096 78.0248 13.5318 78.4235C11.6154 79.2811 9.4336 79.3256 7.48444 78.5466C3.99356 77.1708 1.38359 72.9443 0 69.609C0.692695 61.9283 3.87496 57.4149 4.64852 50.6452C5.45801 42.1652 6.13723 33.5761 6.53389 25.0871C6.80656 19.2536 6.63451 4.60382 9.93178 0Z" fill="#B7B7B9"/>
<path d="M9.42057 5.38375L11.009 5.82467C16.949 11.0947 13.5453 33.6466 17.6619 36.6496C18.8609 36.6172 18.427 36.7874 19.311 36.0411C21.6245 26.7143 20.0343 17.0858 17.502 8.19319C17.1912 7.10165 17.3969 6.55341 18.0303 5.73262C23.3679 4.82293 24.7668 12.0084 26.4325 15.6984C27.6871 18.4777 28.6831 21.786 29.5415 24.7266C31.2256 31.6647 31.1304 43.4655 31.3375 50.9033C21.1119 51.1606 14.1697 47.7787 5.45846 52.5736C6.19563 43.7035 6.78904 34.8351 7.41121 25.9654C7.80113 20.4067 7.14662 10.1729 9.42057 5.38375Z" fill="#FDFDFD"/>
<path d="M10.0845 51.1027C17.3789 50.5149 24.1599 52.0775 31.4992 51.95C33.2826 56.8522 37.9999 65.9698 35.5314 70.8371C33.5499 74.7443 26.7474 80.9106 22.0288 78.7109L16.9306 75.5171C16.8992 74.307 17.0335 72.1536 16.3763 71.2721C16.2244 71.951 16.0506 72.625 15.8556 73.2931C13.0112 82.8723 4.53127 77.7284 2.00621 71.1743C-0.112304 65.6744 3.31748 58.7866 5.2635 53.6495C6.80207 52.694 8.46148 51.9109 10.0845 51.1027Z" fill="#FDFDFD"/>
<path d="M10.7215 0.594711C13.4402 1.36279 14.3215 2.32829 16.0133 4.40356C16.9769 12.4255 22.4066 27.382 17.9705 36.2809C15.1629 32.2726 16.9396 14.174 13.7573 8.58742C11.8167 5.18169 11.54 5.93154 9.32129 3.39868C9.34914 2.16081 9.95873 1.58284 10.7215 0.594711Z" fill="#FDFDFD"/>
</svg>
