<svg width="39" height="95" viewBox="0 0 39 95" fill="none" xmlns="http://www.w3.org/2000/svg">
<path d="M18.1199 0C23.6408 0.416904 22.6885 4.10394 23.0569 8.64817C23.6274 15.698 22.6795 23.6329 24.2069 30.5274C25.276 35.3511 28.0657 40.4339 28.8203 45.4587C29.4672 49.7773 28.7844 54.5714 30.1949 58.7903C38.1641 75.391 47.719 92.3878 20.6535 94.9341L14.4229 94.9942C8.80763 95.0185 -1.11113 95.4141 0.101765 87.2156C1.19337 79.8339 3.23281 72.767 4.64336 65.4531C7.01524 53.1431 4.80509 40.455 6.95235 28.0875C8.16973 21.413 13.457 4.5547 18.1199 0Z" fill="#B7B7B9"/>
<path d="M15.6358 56.4613C21.1028 55.6472 24.0496 56.5915 28.8518 58.9838C36.3312 72.5088 46.4207 91.2653 22.5807 93.9072C18.367 94.3019 12.6844 94.257 8.42129 93.9786C1.29668 93.5125 0.0253845 89.7027 1.50331 83.329C3.3541 75.3596 5.39808 67.1459 6.48519 59.0017C9.36019 57.4298 12.4553 57.0526 15.6358 56.4613Z" fill="#FDFDFD"/>
<path d="M18.6949 0.45929L20.2942 1.02315C23.8789 4.21152 21.3453 25.1734 23.1018 29.7641C27.2436 40.5942 27.868 46.4264 28.7934 57.6942C23.5195 55.6485 22.3201 55.1726 16.5252 55.3199C12.9584 56.0194 10.0071 56.6413 6.48969 57.5842C6.84906 54.61 6.82209 47.332 6.81311 44.1705C6.78166 32.3338 8.05745 23.3213 12.5406 12.2968C14.3285 7.90313 15.2809 4.04175 18.6949 0.45929Z" fill="#FDFDFD"/>
</svg>
