<svg width="27" height="91" viewBox="0 0 27 91" fill="none" xmlns="http://www.w3.org/2000/svg">
<path d="M11.9729 0L14.1606 0.177898C15.953 1.52501 15.4768 3.92236 15.0052 6.22353C12.8848 16.6004 17.3142 23.4025 18.6214 32.718C19.6232 41.7094 19.9421 51.3568 21.6266 60.2149C24.286 74.1988 34.1149 83.7178 14.4301 89.091C10.0458 90.404 4.02627 90.9185 0.531347 87.4324C-1.80908 81.6191 4.42159 43.5019 3.06495 34.7732C2.39112 30.4236 4.77195 17.8119 5.05496 12.8579C5.29753 8.53372 8.28934 2.69019 11.9729 0Z" fill="#B7B7B9"/>
<path d="M11.9864 55.991C14.9827 55.4868 18.0734 57.5096 20.4767 58.9303C23.2394 72.286 32.2866 82.703 14.7761 88.2276C10.2974 89.0758 4.83486 90.3667 1.304 86.8262C-0.0930698 84.0015 2.40462 62.4568 2.85833 57.7408C6.49701 56.0027 8.01534 56.1612 11.9864 55.991Z" fill="#FDFDFD"/>
<path d="M11.8337 0.7943C12.4941 0.824249 13.7788 0.840008 14.2145 1.24223C15.5397 2.45316 13.3745 8.69025 13.3296 10.8872C13.1948 17.3027 16.6808 25.6897 17.4894 31.6234C18.7472 40.8123 18.6843 48.7409 20.5755 58.0174C17.9565 56.4423 17.2019 55.8954 14.246 55.1245C9.40793 54.9669 7.6964 55.0122 3.12335 56.529C3.16378 52.8071 3.45578 47.7468 3.74777 43.9608C4.73605 31.2278 2.55734 10.6205 11.8337 0.7943Z" fill="#FDFDFD"/>
</svg>
