<svg width="31" height="105" viewBox="0 0 31 105" fill="none" xmlns="http://www.w3.org/2000/svg">
<path d="M15.7269 0C19.37 0.71792 20.6009 7.06771 21.3735 10.2283C24.9448 24.8575 26.005 39.7435 26.0409 54.7565C26.0589 61.8827 26.0948 69.1728 26.562 76.2779C27.1325 83.8042 33.5069 87.5211 28.6104 95.2966C25.0167 101.004 20.2685 102.703 14.0288 104.33C12.3802 104.54 10.3228 102.946 8.91221 102.163C-8.3917 92.554 4.29424 81.9112 7.33994 68.1518C11.648 48.6697 12.4745 27.9763 12.7441 8.05948C12.7845 4.88512 13.4583 2.3295 15.7269 0Z" fill="#B7B7B9"/>
<path d="M15.6415 0.734085L17.07 1.47809C19.114 3.90831 20.2056 9.36286 20.9423 12.5346C25.5288 32.3847 25.3806 52.0494 25.2863 72.2961C22.1417 71.3999 19.671 70.668 16.3737 70.4489C12.8474 70.5409 10.2554 71.2881 6.89972 72.1583C12.3128 55.5921 12.1017 37.4571 13.4943 20.2163C13.9749 14.2389 12.744 5.98138 15.6415 0.734085Z" fill="#FDFDFD"/>
<path d="M14.9407 71.3608C18.3413 71.0281 22.0698 72.2539 25.2997 73.2691C25.6186 78.3308 26.8315 80.7635 28.3544 85.4857C31.8044 96.2018 23.7229 100.711 14.7969 103.313C13.337 103.479 12.7934 103.355 11.4637 102.723C-4.00285 95.3576 0.70493 85.7529 6.88618 73.1223C10.161 72.139 11.5536 71.7551 14.9407 71.3608Z" fill="#FDFDFD"/>
</svg>
