<svg width="32" height="90" viewBox="0 0 32 90" fill="none" xmlns="http://www.w3.org/2000/svg">
<path d="M11.5983 0.0710794C18.1838 -0.502978 21.4182 2.39627 22.2403 8.91004C22.73 12.7743 20.8972 18.2361 21.2251 22.0266C22.3122 34.5643 23.7362 47.145 25.7128 59.5781C26.427 64.0632 32.8958 71.497 30.8339 76.8133C28.9966 81.5404 23.3813 86.4746 19.0104 88.7214C18.6151 88.8979 18.2153 89.0479 17.802 89.1718C11.3602 91.1254 1.76044 81.8642 0.120792 76.5201C-0.939364 73.0645 5.29579 61.3063 6.45926 56.7695C8.09891 50.2109 9.18601 43.526 9.7071 36.786C10.4843 25.5859 9.57681 14.2597 10.2461 3.06592C10.2956 2.27836 11.1715 0.768569 11.5983 0.0710794Z" fill="#B7B7B9"/>
<path d="M13.5704 58.0919C17.6223 57.8292 20.6995 58.2445 24.3382 60.0002C26.8583 63.7224 29.5985 70.6637 30.6811 75.002C28.444 80.8966 23.278 85.7005 17.6853 88.4502C10.345 90.0442 2.95988 80.941 0.349915 75.0392C2.11085 70.2528 4.41081 64.9734 6.311 60.1411C9.90924 58.9149 9.33426 58.7452 13.5704 58.0919Z" fill="#FDFDFD"/>
<path d="M11.8858 0.831295C13.6064 0.854419 14.1095 0.813964 15.6997 1.41424C18.3771 3.8203 23.606 51.9283 24.4775 58.848C22.6806 58.2311 21.3329 57.6716 19.4237 57.5472C14.9046 56.6366 11.1222 57.4071 6.84113 58.8736C8.79074 51.5485 10.0126 44.0496 10.4978 36.4851C10.9066 30.8613 10.7179 3.2532 11.8858 0.831295Z" fill="#FDFDFD"/>
<path d="M17.2495 1.52434C22.4649 2.64493 20.9061 13.7006 20.5243 17.3955L20.4794 17.4544L20.129 17.4566C18.979 12.1816 18.0222 6.86754 17.2495 1.52434Z" fill="#FDFDFD"/>
</svg>
