<svg width="30" height="90" viewBox="0 0 30 90" fill="none" xmlns="http://www.w3.org/2000/svg">
<path d="M16.2262 0C17.1471 0.0596283 17.7266 0.23546 18.6026 0.462838C20.3276 4.05396 18.9485 20.0598 19.8963 26.1106C21.3787 35.6094 22.1918 46.9235 24.3121 56.3886C25.6418 61.519 28.692 66.3202 29.5141 71.5884C31.6973 85.6231 25.7856 87.4573 13.9981 89.5151C7.45744 88.8506 -0.0624988 79.4869 0.000391816 72.9866C0.0453137 68.2168 2.93832 63.2598 3.91762 58.6714C4.77563 54.6653 5.31021 50.4603 5.9481 46.4085L10.1528 20.058C11.2534 13.2012 11.2668 4.90474 16.2262 0Z" fill="#B7B7B9"/>
<path d="M12.3494 55.4394C17.6907 55.8103 18.7642 56.0914 23.5978 58.4154C27.268 65.5618 31.2526 75.3296 27.5016 83.2541C26.0147 86.3914 20.9564 87.1538 17.8209 87.9243C10.7277 89.5429 6.38381 85.3622 2.79904 79.7182C-1.53142 72.9022 3.1584 64.5233 5.13946 57.4882C7.92012 56.3239 9.36663 56.0518 12.3494 55.4394Z" fill="#FDFDFD"/>
<path d="M16.9943 0.441872C18.4318 1.53723 18.3779 1.68239 18.598 3.84868C19.0517 8.36445 17.9961 14.1773 18.3824 18.5965C19.4605 30.9738 21.1136 45.1176 23.5349 57.2785C19.3617 55.3469 17.6906 54.9819 13.1041 54.7268C10.6019 54.6685 7.55173 55.6675 5.14392 56.4039C7.06208 45.1234 8.89488 33.8282 10.6334 22.5185C11.5722 16.5966 12.3853 9.5202 14.2271 3.82933C14.6359 2.56474 15.9926 1.34721 16.9943 0.441872Z" fill="#FDFDFD"/>
</svg>
