<svg width="45" height="90" viewBox="0 0 45 90" fill="none" xmlns="http://www.w3.org/2000/svg">
<path d="M19.9875 0.0269298C27.7769 -0.254554 27.9567 1.60986 30.0815 8.49703C32.5971 4.02912 36.7973 1.39111 38.3785 8.04847C41.4602 21.0491 39.7666 35.345 40.2428 48.6505C39.9328 56.9415 43.9623 65.3411 44.2453 73.3707C44.5912 83.0239 36.11 91.7989 26.4608 86.7175L24.9918 85.3785C23.1635 85.0678 14.2285 88.7559 10.81 89.6158C7.26116 88.0097 4.21992 85.4566 2.02324 82.2373C-2.43301 75.5982 1.76272 62.4162 2.44104 54.5999C3.29456 44.7563 2.90821 33.3326 4.66915 23.8657C5.94044 17.0439 9.66449 6.25917 16.4926 3.79047C16.569 3.7572 18.4242 1.05893 19.9875 0.0269298Z" fill="#B7B7B9"/>
<path d="M15.7289 4.79436C16.1152 4.89732 16.7801 5.17782 17.1754 5.33201C19.2508 8.97971 14.8305 41.5099 23.2937 40.4346C30.8092 34.1781 26.4877 9.53333 33.7651 5.16722C35.5664 4.98322 34.96 4.80545 36.384 5.68116C39.515 10.1593 39.3264 28.0334 39.3219 34.0205C39.268 42.1035 39.1692 49.2616 39.9418 57.311C28.2262 53.9708 15.1899 52.3432 3.3844 55.8082C3.71682 42.245 3.23166 12.7011 15.7289 4.79436Z" fill="#FDFDFD"/>
<path d="M10.1766 54.9137C18.0469 53.85 32.9744 55.6717 40.418 58.6926C42.4305 68.4823 47.3494 78.721 36.9051 86.0156C33.1766 88.6185 28.1318 88.3527 25.5353 84.3166C25.5847 82.3284 25.9352 77.8289 24.7088 76.4235C23.7924 78.9801 24.2057 81.0119 24.3944 83.7365C15.1899 88.4785 5.12286 91.8038 1.309 78.0911C0.0601677 73.6068 2.18499 61.7854 3.24066 57.011C5.75179 56.1377 7.59356 55.5123 10.1766 54.9137Z" fill="#FDFDFD"/>
<path d="M21.4834 0.470504C34.7578 0.0237407 26.7033 32.4171 23.9227 38.8311C23.5947 39.1953 23.0916 39.4288 22.6559 39.6762C17.4405 36.644 19.0217 13.5196 18.3389 7.68252C18.1682 6.22612 17.7908 3.81925 18.3613 2.47721C19.3721 1.21433 19.9516 1.08017 21.4834 0.470504Z" fill="#FDFDFD"/>
</svg>
