<svg width="41" height="82" viewBox="0 0 41 82" fill="none" xmlns="http://www.w3.org/2000/svg">
<path d="M13.0626 81.8277C9.38795 80.1633 2.89225 75.9983 0.879748 72.2616C-2.51635 65.9575 4.97212 57.1008 5.58755 50.0384C6.31529 41.6419 5.12934 32.1858 7.37543 24.0803C8.57934 19.7352 12.3888 9.38111 15.2323 5.67679C16.3194 4.52778 19.6077 3.84933 20.6724 2.99864C23.0532 1.09929 23.6956 -0.784301 27.2264 0.336155C28.7717 1.71515 28.2776 1.12569 29.0458 3.33225L29.4905 3.3459C29.9622 3.486 30.4069 3.71485 30.7932 4.0204C33.0168 5.74505 33.0887 12.8955 33.1651 15.8473C33.4481 26.6612 32.8012 39.0826 34.4004 49.7259C35.7436 55.3371 39.6249 61.5972 40.0202 67.3935C40.6356 76.4868 30.8786 84.4729 22.4512 77.4786C19.5942 79.2383 16.3149 80.9881 13.0626 81.8277Z" fill="#B7B7B9"/>
<path d="M29.0458 3.33225L29.4905 3.3459L30.6495 5.16088C33.3313 9.27964 31.7456 28.7163 32.4149 34.7707C32.626 36.71 33.3762 49.6392 33.0708 51.0909C25.2229 50.711 14.0733 50.4694 6.34674 50.8893C6.89928 40.2329 6.09069 29.265 9.88659 19.1439C11.1489 15.7822 15.9016 1.18226 21.4405 4.42181C22.6399 7.88457 18.9159 16.6923 18.8755 20.6126C18.8395 24.3062 17.5278 35.4613 20.4971 37.754C25.196 37.0005 23.5204 20.5004 24.585 15.9411C25.7395 10.9944 25.771 7.77187 29.0458 3.33225Z" fill="#FDFDFD"/>
<path d="M10.5514 51.5107C14.5405 51.2125 30.353 51.5475 33.9647 52.265C36.4534 56.8395 38.0886 62.031 38.9825 67.1577C40.4245 75.3984 30.636 83.1891 23.3811 77.2532C23.4036 75.8353 23.6057 72.7367 22.6938 71.7776C21.9886 73.02 22.1772 74.9628 22.1817 76.454C19.0012 78.3035 16.818 79.536 13.413 80.9576C10.0753 79.2356 2.44306 74.8367 1.25263 71.0919C-0.0680735 66.9525 4.34322 56.2307 6.38267 52.4033C7.27213 51.5947 9.25769 51.6243 10.5514 51.5107Z" fill="#FDFDFD"/>
<path d="M25.2454 0.509735C26.7098 0.744432 26.9928 0.777705 27.6801 2.02959C27.5544 4.61489 24.594 10.3254 23.8887 13.9709C22.5051 21.155 23.745 30.7395 21.2833 37.1994C18.251 34.531 19.6436 20.8474 20.3893 16.6236C21.3821 10.9895 23.5743 9.29894 22.1143 3.28277C22.5725 2.11023 24.1493 1.25796 25.2454 0.509735Z" fill="#FDFDFD"/>
</svg>
