<svg width="38" height="80" viewBox="0 0 38 80" fill="none" xmlns="http://www.w3.org/2000/svg">
<path d="M19.8105 4.39229C21.841 2.41217 23.6828 0.0412639 26.5084 0C31.3645 2.42249 30.5064 18.0525 30.8209 23.0464C31.4588 33.2658 31.8002 43.7039 33.4713 53.8196C34.4775 59.6554 39.4369 65.9047 35.8342 72.9878C34.518 75.5085 32.2539 77.3993 29.5361 78.2394C25.6998 79.4212 23.6559 78.4805 20.7135 76.0469C18.6336 77.4096 13.8988 81.1148 11.5359 79.682L10.8981 79.3013C6.5002 77.8847 2.67734 73.5724 0 69.988C0.188672 59.9266 6.54957 53.151 5.46246 41.5213C4.74371 33.854 7.20992 22.3706 9.95465 15.2686C11.9492 10.4553 13.7191 4.65541 19.8105 4.39229Z" fill="#B7B7B9"/>
<path d="M5.90724 51.7079C14.8422 51.4407 25.2191 48.5851 32.1191 53.3445C34.4775 59.2243 36.0094 63.273 36.4765 69.7827C33.8576 74.5445 26.7555 82.9822 22.0207 75.4694C21.9039 74.2284 21.7646 71.3246 21.275 70.3498C20.5832 71.8549 20.709 73.4713 20.7 75.1345C18.3012 76.5215 14.0965 79.2725 11.5359 79.682L10.8981 79.3013C9.39766 76.9956 5.79043 75.6122 3.70606 73.2213C-1.81484 66.8925 3.52189 58.7672 5.90724 51.7079Z" fill="#FDFDFD"/>
<path d="M17.9688 5.25484L19.2984 5.29749L19.8645 5.91443C20.1385 9.18097 17.4881 16.384 17.3668 20.0802C17.25 23.6844 16.2707 33.2415 18.427 35.8646C19.7342 36.4205 19.2311 36.4282 20.4799 36.0083C23.1258 31.6224 21.1133 4.15297 27.6899 5.73707C30.4481 9.04986 30.0213 26.8477 30.2818 32.3318C31.3195 38.257 31.1892 45.7119 32.3213 52.4214C25.2371 47.4405 15.2959 50.9468 6.09139 50.6393C6.05545 40.6098 7.00333 9.76962 17.9688 5.25484Z" fill="#FDFDFD"/>
<path d="M24.9811 0.728474C26.778 0.92716 26.5579 0.637953 27.8022 1.60682C28.1077 2.75521 28.2694 3.06772 27.8426 4.18395C20.4934 5.56151 21.5176 28.1745 20.2149 34.8292L19.5006 35.2535L18.8313 34.8701C17.7397 29.4753 17.8969 21.3711 18.9705 15.9588C19.6803 12.3837 21.1223 8.26319 21.0055 4.68639C22.4116 3.5055 23.7098 2.06549 24.9811 0.728474Z" fill="#FDFDFD"/>
</svg>
