<svg width="25" height="80" viewBox="0 0 25 80" fill="none" xmlns="http://www.w3.org/2000/svg">
<path d="M2.88008 0.107093C6.24922 -0.0455695 9.67227 -0.0249141 13.0414 0.105298C15.9299 0.217101 20.5524 0.431729 22.6098 2.74727C24.3662 4.72649 24.6493 7.44166 24.4831 9.97317C23.8721 19.3211 20.3322 28.598 18.9397 37.9343C17.1607 49.8554 17.5156 61.8103 16.8149 73.797C16.5274 75.0902 16.6217 76.6154 16.1186 77.8412C15.7188 78.8183 15.0944 79.0078 14.1959 79.4002C13.001 79.1137 12.4125 78.852 11.7432 77.7402C6.16835 68.5373 9.259 44.9586 6.71193 34.1334C4.89259 26.3983 -1.44589 9.83217 0.30157 2.74681C0.642976 1.37015 1.73008 0.789586 2.88008 0.107093Z" fill="#B7B7B9"/>
<path d="M2.45782 1.0545C4.84766 0.935965 7.26447 0.940901 9.65431 0.941799C13.0414 0.943146 19.4383 0.583484 21.9045 3.19177C23.6609 5.04887 23.7373 7.95307 23.5711 10.358C23.068 17.7019 20.2424 24.7105 18.998 31.9387C16.6396 45.606 16.0916 59.528 15.9434 73.3754C15.9613 74.2523 15.8805 75.3789 15.6694 76.2347C15.4268 77.1938 14.9685 77.9194 14.1105 78.4196C13.8051 78.5974 13.4098 78.372 13.0774 78.2763C7.66427 72.3009 9.32186 44.2267 7.70916 34.9641C5.97518 25.0253 1.4201 15.6432 1.03378 5.40629C0.961901 3.48633 1.15958 2.46574 2.45782 1.0545Z" fill="#FDFDFD"/>
<path d="M5.71014 19.7382C7.9787 19.9865 9.86091 21.6568 12.2687 21.6941C14.4654 21.7278 17.0844 19.8864 19.016 20.2986C18.9711 20.3735 18.9306 20.4548 18.8722 20.524C17.7357 21.9038 14.4294 22.3205 12.6955 22.3124C9.90132 22.2994 7.72264 21.7677 5.71014 19.7382Z" fill="#B7B7B9"/>
</svg>
