<svg width="28" height="86" viewBox="0 0 28 86" fill="none" xmlns="http://www.w3.org/2000/svg">
<path d="M5.90585 0.26028C6.63807 0.171825 7.37481 0.111209 8.11153 0.0784318C13.2281 -0.145174 20.8963 -0.136195 24.8449 3.59102C27.4234 6.02375 27.9131 10.1196 27.5402 13.4849C26.8395 19.7746 22.7561 25.4268 20.8694 31.417C19.0006 37.3425 18.7041 43.8303 17.7607 49.9592C16.8668 55.7725 15.4787 61.5823 15.1013 67.4611C14.8408 71.4641 15.1508 75.533 15.299 79.5417C15.3305 80.7114 15.3934 81.921 15.308 83.088C15.2137 84.3124 14.8094 85.0169 13.902 85.8189C13.1697 85.8462 12.7834 85.9365 12.132 85.5275C0.31756 78.122 6.50329 44.898 5.65876 32.6567C5.232 26.5201 2.46932 20.7144 1.07675 14.7529C0.313074 11.4671 -0.908796 5.75885 1.08124 2.71367C2.14589 1.08602 4.11796 0.601526 5.90585 0.26028Z" fill="#B7B7B9"/>
<path d="M6.59768 0.998917C6.99749 0.956261 7.39726 0.923925 7.79706 0.901025C12.5498 0.654071 20.4022 0.482999 24.0408 3.91836C26.534 6.27251 26.9428 10.442 26.5699 13.6803C25.8512 19.9102 21.8711 25.3653 20.0293 31.2827C18.2684 36.9295 17.8281 42.9956 17.0015 48.8318C15.5012 59.4405 13.8391 66.9798 14.2928 77.9352C14.3422 79.3832 14.6611 81.8106 14.2164 83.1553C13.9334 84.0143 13.6684 84.1584 12.8912 84.5738C12.5409 84.479 12.2129 84.3569 11.9074 84.1557C10.7709 83.4028 9.8096 81.5784 9.18968 80.3805C1.94828 66.4195 7.87345 47.4417 6.64259 32.5629C6.12599 26.2983 3.21056 20.0714 1.81349 13.92C1.20255 11.2381 -0.0192971 5.55366 1.66977 3.08321C2.72543 1.53907 4.90413 1.3029 6.59768 0.998917Z" fill="#FDFDFD"/>
<path d="M6.04065 18.7047C9.53108 20.3826 13.6414 23.2158 17.5945 20.8747C18.7445 20.1958 19.1174 19.5995 20.5324 19.657C20.1282 20.1549 19.6655 20.6358 19.1893 21.0602C17.6889 22.3924 15.1553 22.8777 13.2012 22.7085C10.151 22.4436 7.96331 20.9928 6.04065 18.7047Z" fill="#B7B7B9"/>
</svg>
