<svg width="29" height="99" viewBox="0 0 29 99" fill="none" xmlns="http://www.w3.org/2000/svg">
<path d="M10.7317 0.0724245C12.1736 -0.117955 13.3596 0.0648013 14.6937 0.646716C19.8373 2.89311 25.6008 7.56638 27.6313 12.9585C31.2385 22.5574 22.8066 29.9589 21.4365 37.108C20.4617 42.1845 20.9828 47.7827 20.4932 52.9683C19.716 61.1484 18.0898 69.2979 17.5418 77.4873C17.1689 83.0986 18.6064 92.5174 16.4457 97.3762C15.1924 98.007 14.7566 98.3119 13.3596 98.2037C13.0002 97.9518 12.6723 97.6604 12.4476 97.2783C10.8125 94.4949 9.91857 90.0371 9.04708 86.9035C4.95021 72.2268 5.70037 62.5192 6.2574 47.7854C6.43259 43.1925 6.86835 38.363 6.27538 33.7934C5.21523 25.6152 -2.12052 18.3938 0.601748 9.62149C1.99882 5.1094 6.77853 2.08668 10.7317 0.0724245Z" fill="#B7B7B9"/>
<path d="M10.8035 0.904888C11.4773 0.876601 12.1737 0.868067 12.843 0.9664C17.0836 1.58468 22.636 6.44026 25.0034 9.87473C28.1749 14.4816 28.0446 21.1722 25.6098 26.0992C24.2891 28.7744 22.353 31.2731 21.2748 34.0507C20.7403 35.439 20.4438 36.9535 20.2866 38.4294C19.779 43.1382 20.1877 47.8878 19.6711 52.628C18.7322 61.1888 16.8006 69.8838 16.4232 78.463C16.1582 84.3958 17.1106 90.7133 16.0594 96.545C15.1969 97.0421 14.9094 97.1934 13.8717 97.2069C13.8268 97.1593 13.7729 97.1135 13.7279 97.0641C12.0344 95.2761 11.127 90.8413 10.4307 88.4198C6.1676 73.6209 6.46408 64.1931 7.11095 49.1077C7.31759 44.3191 7.86115 39.1977 7.28615 34.4292C6.13166 24.8837 0.835352 21.8767 1.19922 9.83747C3.78223 5.58132 6.38321 3.21279 10.8035 0.904888Z" fill="#FDFDFD"/>
<path d="M7.53772 16.7275L8.04978 16.5255C14.6623 20.4287 18.283 15.7078 21.6386 17.2057C18.1392 18.4571 13.6516 19.981 9.94103 18.6367C8.8629 18.2461 8.0094 17.7566 7.53772 16.7275Z" fill="#B7B7B9"/>
</svg>
