<svg width="30" height="88" viewBox="0 0 30 88" fill="none" xmlns="http://www.w3.org/2000/svg">
<path d="M12.5197 0.000890833C14.4783 -0.0404179 16.6121 1.36362 18.1934 2.39949C22.0117 4.90405 28.2828 9.97471 29.1587 14.7791C30.2593 20.8219 23.0404 28.0621 21.7466 34.0407C19.7746 43.1398 20.2687 55.5226 20.3451 64.8768C20.3855 69.7562 20.673 74.728 19.6802 79.5347C19.0738 82.4698 18.0451 84.7943 16.401 87.2863C15.5699 87.6581 14.923 87.5706 14.056 87.4758C6.4193 83.2475 8.28358 40.1027 6.44628 30.3682C5.54335 25.5944 1.70703 20.7806 0 16.0687C0.179688 15.057 0.368333 14.04 0.646849 13.05C2.30896 7.09881 7.36718 2.90104 12.5197 0.000890833Z" fill="#B7B7B9"/>
<path d="M12.313 0.912811C13.1621 0.932568 13.9617 1.03764 14.7523 1.35419C19.276 3.15965 25.9424 8.779 27.7932 13.3746C30.3178 19.6567 23.1572 26.2068 21.4232 31.938C20.3676 35.42 20.1879 39.4854 19.9543 43.1008C19.6263 48.2298 19.3164 53.3799 19.3253 58.521C19.3388 65.3868 19.9587 72.588 18.7638 79.3636C18.346 81.724 17.4522 83.8739 16.5133 86.0677C15.7406 86.5697 15.3408 86.6438 14.4334 86.6007C7.38965 82.3365 9.27637 40.1898 7.52891 30.9807C6.49122 25.5086 2.44823 20.9134 0.884949 15.4593C1.00624 14.7858 1.14998 14.1173 1.32517 13.455C2.81209 7.83967 7.50641 3.73303 12.313 0.912811Z" fill="#FDFDFD"/>
<path d="M6.60345 15.8491C8.95287 16.5666 11.181 18.1947 13.6472 18.5346C16.4593 18.9217 18.8537 16.7112 21.275 16.959C19.2625 18.7506 16.9175 19.4847 14.2537 19.3365C11.5179 19.1843 8.44974 17.9047 6.60345 15.8491Z" fill="#B7B7B9"/>
</svg>
