<svg width="33" height="87" viewBox="0 0 33 87" fill="none" xmlns="http://www.w3.org/2000/svg">
<path d="M14.2967 0.0268178C16.161 -0.125396 17.5535 0.383779 19.1752 1.2131C23.344 3.33915 30.6078 8.04521 32.0409 12.8132C34.4037 20.696 25.2711 25.808 22.9487 32.3083C21.7043 35.7845 21.8256 39.7443 21.8436 43.3889C21.9154 57.9417 24.9118 71.7393 17.6659 85.1081C17.585 85.1871 17.4996 85.2652 17.4098 85.3393C16.399 86.1861 15.5814 86.329 14.3236 86.2284C9.88086 82.5766 9.30589 39.0465 7.22152 30.1521C6.26019 26.0406 3.03031 22.4804 1.16606 18.7213C0.114884 16.6033 -0.419723 14.6043 0.397855 12.2937C2.38789 6.64341 9.23851 2.54935 14.2967 0.0268178Z" fill="#B7B7B9"/>
<path d="M14.2518 0.904623C14.4225 0.899235 14.5932 0.895203 14.7639 0.901938C14.8582 0.905979 14.9481 0.912268 15.0424 0.91586C16.5114 0.968394 17.4861 1.35723 18.7619 2.03119C22.6566 4.0854 29.7319 8.49916 31.0256 12.9803C33.3256 20.9336 24.3457 25.1129 22.1939 31.65C20.9451 35.4298 20.9137 39.6366 20.8957 43.5798C20.8373 56.7698 23.9235 72.0231 17.2705 83.9469C16.5428 84.7619 16.107 85.1939 15.0199 85.4556L14.2967 84.9559C12.7065 81.6 12.5941 76.9375 12.2078 73.2614C11.2824 63.6886 10.4514 54.1072 9.71019 44.5186C9.33734 39.9922 9.34628 34.9592 8.31757 30.5536C7.01034 24.9567 -0.262469 18.6126 1.11214 12.8698C2.32503 7.80409 10.0606 3.4514 14.2518 0.904623Z" fill="#FDFDFD"/>
<path d="M21.6953 19.2826L22.4455 19.6009L22.2568 20.2964L22.1266 19.468C21.7762 20.5488 21.6459 20.7782 20.6172 21.3161C16.7584 23.3254 12.4549 22.0435 8.60958 20.8087L8.16486 20.7405L8.26367 20.1878C10.6984 20.3234 12.6975 21.3606 15.0334 21.6865C17.7826 22.07 19.6649 20.9107 21.6953 19.2826Z" fill="#B7B7B9"/>
</svg>
