<svg width="49" height="85" viewBox="0 0 49 85" fill="none" xmlns="http://www.w3.org/2000/svg">
<path d="M12.2277 0.135395C13.5574 -0.0280443 14.8647 -0.0141268 16.1989 0.0886962C19.1143 0.313649 21.266 0.981773 23.2201 3.27217C25.8481 2.03515 31.4813 -1.01317 34.3428 0.338797C35.8387 1.04688 37.0381 2.10789 38.7496 2.31129C40.8295 2.55825 42.6488 1.27363 44.7647 1.84657C45.8428 2.49449 46.4358 3.22278 47.0377 4.32554C53.1516 15.4821 43.0621 21.4754 41.1934 30.958C40.7082 33.4204 40.8969 36.3021 40.852 38.8188C40.7037 47.2701 41.8897 65.4661 39.7963 72.5663C38.9114 75.5697 37.0246 81.1716 34.0148 82.7391C33.2377 83.1427 32.9906 83.2568 32.1641 82.9883C30.6996 80.168 32.0563 70.3518 31.1893 66.1432C30.3358 62.0142 27.2317 58.5321 26.185 53.7632C25.7447 51.8082 25.3315 49.8115 24.7385 47.8978C24.2668 46.3761 23.6918 44.7421 22.1779 43.9779C21.6748 43.7233 21.3514 43.964 20.8348 44.1257C15.5609 50.2317 20.9875 70.0765 20.7135 78.1165C20.6416 80.2322 20.2328 82.2775 18.6201 83.7727C18.0766 83.9523 17.56 84.2078 16.9805 84.131C13.8584 83.7165 10.5971 79.8106 8.83615 77.4313C-0.911894 64.2574 5.37269 44.3012 7.56039 29.5329C3.76898 23.4282 0.386328 16.0478 0 8.83225C3.18945 4.53344 7.01678 1.50307 12.2277 0.135395Z" fill="#B7B7B9"/>
<path d="M12.2681 0.917108C14.8916 0.865023 18.683 0.486512 20.8168 2.34002C23.0898 4.31611 22.7709 8.71235 22.9191 11.4967C23.7906 9.20581 23.822 6.56429 24.0332 4.13651C27.546 2.15638 30.9601 0.647707 35.1154 1.11692C40.1871 1.68851 37.092 5.11264 38.808 7.31503C39.3291 6.39411 39.4459 5.37532 39.8771 4.42432C40.3892 3.29775 41.2382 2.81147 42.3433 2.38581C43.2283 2.36247 43.9605 2.38133 44.7197 2.88601C46.4627 4.04805 47.1724 6.3124 47.5183 8.27861C49.3242 18.5991 42.1232 21.7327 40.4566 30.2221C38.1476 41.9547 41.9705 62.9584 38.8349 72.6283C37.5277 76.6518 35.0974 80.0858 32.7031 83.5203C32.775 74.2945 34.0463 67.589 28.9566 59.4436C26.706 55.1214 26.9486 45.8997 22.9595 43.2806C21.6388 43.0301 21.3154 42.9573 20.0711 43.4656C13.4945 51.0143 22.4339 73.5411 18.7548 82.3417C17.9193 83.1202 17.8699 83.25 16.6705 83.2415C13.5349 81.7023 11.0013 79.0536 8.99333 76.2351C0.449185 64.2318 6.18573 43.3264 8.44979 29.9056C6.74725 25.3769 3.98453 21.2859 2.35836 16.6921C1.36109 13.8674 0.718707 10.6184 2.13375 7.81119C4.03394 4.03772 8.46326 2.13527 12.2681 0.917108Z" fill="#FDFDFD"/>
<path d="M17.569 23.4205C21.4098 22.7978 26.0592 25.8447 30.2864 25.8146C34.0059 25.7886 37.0606 23.0892 40.8924 23.4978C39.8368 24.6405 34.3832 25.8416 32.5684 26.4895C27.3844 26.6951 23.8984 25.7841 19.1367 23.9872C15.8484 24.7482 12.5781 25.8097 9.20001 26.0688C11.9717 25.0468 14.6985 24.1506 17.569 23.4205Z" fill="#B7B7B9"/>
</svg>
