<svg width="45" height="83" viewBox="0 0 45 83" fill="none" xmlns="http://www.w3.org/2000/svg">
<path d="M10.9684 0.00120271C16.094 -0.0742307 19.2924 3.4168 23.7082 5.36998C25.0154 4.78538 26.3361 4.19404 27.6703 3.67364C30.7025 2.4905 33.9863 2.51834 36.9691 3.86177C39.6375 5.06377 42.2834 7.55801 43.3076 10.3374C46.2275 18.2727 40.3203 25.8102 38.6716 33.2943C35.9045 45.8346 44.3947 66.4149 39.8397 76.2186C39.2781 77.4219 38.4291 78.7573 37.0994 79.1919C36.1515 79.5022 35.0959 79.3634 34.2244 78.8965C33.4608 78.4888 32.8093 77.8638 32.441 77.078C31.0484 74.115 30.4914 70.4488 29.4267 67.3278C27.7287 62.3667 25.514 57.6629 23.9597 52.6264C23.8205 51.5389 23.3668 49.8914 22.7109 48.988C22.1045 48.1574 21.7676 47.8933 20.7658 47.7519C20.649 47.8722 20.5996 47.918 20.4963 48.0676C19.0183 50.2367 20.95 60.3156 21.7002 62.8597C23.1197 67.6529 25.6129 72.0401 26.2463 77.0726C26.4754 78.9185 26.5068 80.4065 25.3299 81.917L24.0496 82.0189C19.6787 80.4891 16.1928 75.8064 13.6906 72.1205C12.1408 69.8314 10.3529 67.3175 9.43202 64.7065C6.39081 56.0869 9.64765 43.9488 6.6873 34.5614C4.56698 27.8559 -1.29535 19.0679 0.258951 11.9569C1.14391 7.91946 7.54981 2.20179 10.9684 0.00120271Z" fill="#B7B7B9"/>
<path d="M11.3547 0.614548C14.5621 0.99845 17.7021 2.56234 20.3346 4.36646C24.3281 7.10137 23.0568 7.82068 23.825 11.965C24.3596 11.8115 25.3478 5.92407 26.5382 4.62778C28.2947 3.64176 30.0646 3.41142 32.0367 3.63772C35.1543 3.99513 39.031 5.5222 40.9941 8.06045C46.7845 15.5486 40.1226 23.6833 38.1685 31.0766C34.4984 44.9689 41.5961 58.4994 39.8531 72.3194C39.6015 74.3148 39.0221 76.8037 37.306 78.0577C36.5154 78.6383 36.147 78.8861 35.1902 78.7326C34.2693 77.7322 33.6224 76.6752 33.0744 75.4378C31.7627 72.4509 31.0843 69.0861 29.9658 66.009C28.7529 62.654 27.1357 59.5195 26.0037 56.1098C25.3523 53.7435 24.4314 48.6472 22.365 47.121C21.6283 46.5773 21.3318 46.7219 20.4738 46.8602C14.2925 51.8846 26.3227 72.4761 25.4646 79.5332C24.9121 80.4824 24.9256 80.4774 23.8699 80.7729C19.9842 79.9243 16.332 74.3449 14.0904 71.2413C12.4013 68.9016 10.6629 66.3992 10.016 63.5458C8.15175 55.3029 9.98906 46.4947 8.50214 38.206C7.06914 30.2037 -0.396893 20.5609 1.07654 12.4437C1.8492 8.1763 7.9451 3.05491 11.3547 0.614548Z" fill="#FDFDFD"/>
<path d="M39.5611 22.1818C39.6914 22.2981 39.7453 22.6106 39.8037 22.7776C27.0279 27.2919 30.0826 23.4767 19.0767 23.5925C13.8658 23.6473 12.1632 25.1582 6.38179 24.0829C6.05836 23.8045 6.05836 23.7061 5.93707 23.2904C12.316 23.95 13.4211 22.7381 18.8521 22.7179C28.398 22.6824 29.3324 25.8111 39.5611 22.1818Z" fill="#B7B7B9"/>
</svg>
