<svg width="44" height="75" viewBox="0 0 44 75" fill="none" xmlns="http://www.w3.org/2000/svg">
<path d="M10.881 0.0225992C14.6994 -0.280033 19.1152 2.52582 22.6191 4.30524C34.5593 -1.17132 44.5949 2.14777 43.4359 16.6992C42.9597 22.6666 38.0542 26.7687 37.304 32.2969C36.5853 37.6042 39.4513 44.4093 40.5699 49.6511C42.6363 56.7144 41.9175 64.2066 38.0183 70.5111C33.8181 77.028 30.8218 74.0026 31.042 67.4794C31.1767 63.3544 31.024 59.0142 30.2558 54.9422C29.1238 52.3595 27.4617 47.8038 25.1347 46.3131L24.6091 46.5569C23.7062 51.4781 32.0212 66.4233 26.99 72.0184C19.9912 72.1455 8.77416 46.4465 7.78139 39.7464C7.3187 36.6482 7.1929 29.8296 7.08958 26.3893C2.66028 20.0457 -0.26413 16.503 0.0188773 8.72663C2.81751 3.84411 5.80035 2.01126 10.881 0.0225992Z" fill="#B7B7B9"/>
<path d="M11.9457 0.576218C15.49 1.31035 18.8008 3.32729 21.9588 5.02948C21.9274 6.27324 21.842 7.57491 22.0172 8.80878C22.1205 9.57165 22.0756 10.0081 22.7045 10.4755C23.4547 8.81373 23.2031 6.82149 23.1672 5.03668C36.0283 -0.546743 44.8824 4.20869 42.0389 18.9097C41.0371 24.076 35.7947 29.3105 36.181 33.4984C37.4074 46.7168 45.9561 59.7358 35.8756 71.9924C35.0805 72.9591 34.3707 73.0359 33.2701 73.0641C31.6215 71.6246 32.1965 40.1949 23.8051 46.1191C22.8123 48.6902 25.6019 55.6754 26.5767 58.7489C27.3718 61.5731 28.7914 68.2845 26.4869 70.3849C24.9865 70.3063 23.9533 69.8596 22.9695 68.6464C12.6824 55.9533 8.0375 42.9074 8.13633 26.9918C14.5647 28.3258 16.4019 26.2909 22.664 26.2662C24.8293 26.2573 29.1957 28.5589 31.3744 27.9141C32.8254 27.484 37.7218 25.7589 38.4181 24.754C36.6931 24.6718 33.8092 26.3219 32.0347 26.7902C29.3349 27.5051 25.7097 25.7652 22.9246 25.5433C18.4863 25.1904 12.4893 27.69 8.48224 25.6524C4.81212 23.5699 2.63337 18.0997 1.25877 14.3823C-1.41858 7.12771 6.18671 2.37988 11.9457 0.576218Z" fill="#FDFDFD"/>
</svg>
