<svg width="25" height="80" viewBox="0 0 25 80" fill="none" xmlns="http://www.w3.org/2000/svg">
<path d="M9.61187 0.537897C13.1589 0.00761789 18.6066 -0.445427 21.9897 0.79204C22.8252 1.09781 23.5547 1.58185 23.928 2.41206C26.0398 7.11408 22.6477 17.0834 21.3037 21.9228C19.8891 27.0168 18.072 32.2015 17.4799 37.4648C15.9863 50.742 18.0406 65.628 12.9639 78.2743C12.4244 78.6667 11.7205 79.2648 11.0723 79.4273C10.1392 79.6613 9.70933 79.2891 8.96678 78.8293C8.30508 77.7737 7.99737 76.762 7.85722 75.5264C7.40755 71.5697 7.57691 67.3553 7.45831 63.3654C7.22562 55.5244 6.85637 47.6084 5.82496 39.8306C4.54738 30.1981 1.114 20.7972 0.158508 11.5287C-0.132586 8.70581 -0.224669 5.47339 1.72584 3.17896C3.69027 0.868811 6.81953 0.798322 9.61187 0.537897Z" fill="#B7B7B9"/>
<path d="M10.2956 1.29852C12.0924 1.23341 13.8902 1.18087 15.688 1.14091C18.0657 1.09242 21.2098 0.889017 23.0193 2.62713C25.4491 10.734 18.8981 25.915 17.0608 34.165C16.1898 38.075 16.2392 42.3841 16.0568 46.3776C15.5878 56.6366 15.5294 67.1061 12.6782 77.0494C12.0246 77.9043 11.5754 78.3345 10.5678 78.73L9.72508 78.316C7.89901 75.1609 7.91337 48.3227 7.14251 41.9297C5.94983 32.039 2.51826 22.6219 1.25551 12.8582C0.950039 10.4956 0.566409 5.81823 2.17371 3.839C4.07615 1.49608 7.5441 1.5338 10.2956 1.29852Z" fill="#FDFDFD"/>
<path d="M5.5936 20.4788C6.29707 20.1165 7.73099 20.8385 8.49106 21.0697C11.384 21.9507 14.3116 21.9781 17.0186 20.5287C17.28 20.3886 17.7436 20.5093 18.0441 20.5363C17.966 20.7653 17.9633 20.8668 17.7768 21.036C16.2513 22.4194 13.322 22.5478 11.3436 22.4338C9.42722 22.3233 6.93631 21.9861 5.5936 20.4788Z" fill="#B7B7B9"/>
</svg>
