<svg width="28" height="87" viewBox="0 0 28 87" fill="none" xmlns="http://www.w3.org/2000/svg">
<path d="M14.0415 0.279429C16.6995 -0.0447556 19.8593 -0.174965 22.4845 0.380458C24.1781 0.738767 25.9067 1.45089 26.8559 2.98156C30.5431 8.92778 23.3268 23.9031 22.281 30.5839C21.5758 35.0906 22.2235 39.9583 22.5119 44.4807C23.1372 54.2812 24.015 65.4598 21.7128 75.1018C20.6018 79.7535 18.1302 84.35 13.979 86.9067C13.9175 86.8124 13.8559 86.7176 13.7998 86.6202C13.767 86.5636 13.736 86.5061 13.7032 86.4496C10.8421 81.5132 13.1579 72.6699 12.8106 67.0232C12.4894 61.8048 11.0092 56.3179 10.2042 51.1288C9.34939 45.6158 9.03223 39.8573 7.79104 34.4279C6.16038 27.2954 0.175432 20.0731 0.00472937 12.862C-0.107126 8.11553 1.7715 5.0937 4.96634 1.73961C7.94466 0.876616 10.9531 0.459032 14.0415 0.279429Z" fill="#B7B7B9"/>
<path d="M14.2732 1.02928C15.6505 0.958786 17.0332 0.890086 18.4128 0.889637C20.6885 0.888739 24.0338 1.04365 25.6946 2.79792C27.8854 5.11121 26.6205 11.0727 26.0181 13.8027C24.7032 19.7619 21.9481 25.819 21.1894 31.7958C20.5686 36.6855 21.383 41.8132 21.6907 46.7226C22.0519 52.6181 22.1525 58.5271 21.9917 64.4311C21.6844 72.7606 20.6117 79.9228 14.2269 85.8474C12.3074 83.2751 14.0324 70.6081 13.7458 66.7156C13.3968 61.9687 12.1026 57.1235 11.3605 52.4102C10.2267 45.2113 9.85021 37.5741 7.65084 30.5947C5.84722 24.8716 1.71352 19.7251 0.977699 13.685C0.610238 10.6722 1.27553 7.27723 3.2193 4.87997C5.96986 1.48726 10.2913 1.38355 14.2732 1.02928Z" fill="#FDFDFD"/>
<path d="M20.9738 18.8302L21.0398 19.6092C20.087 20.8992 18.3018 21.6428 16.9209 22.4115C13.3609 22.7276 10.9427 22.689 7.84537 20.7098L8.27169 20.2877C9.88079 20.9379 11.5258 21.6006 13.2517 21.8615C16.2435 22.3145 18.7026 20.4862 20.9738 18.8302Z" fill="#B7B7B9"/>
</svg>
