<svg width="29" height="99" viewBox="0 0 29 99" fill="none" xmlns="http://www.w3.org/2000/svg">
<path d="M14.496 0.0263716C17.4424 -0.173437 19.4145 0.774409 21.776 2.4537C24.7566 4.57392 27.2565 7.59396 27.8607 11.2803C29.2501 19.7585 22.7059 25.9176 21.7266 33.7352C21.0972 38.7578 21.7086 44.123 21.9481 49.1695C22.6951 64.8892 23.0819 71.7865 18.9127 87.2144C17.8948 90.9811 17.1019 95.3563 14.8068 98.5613C13.8639 98.5608 12.6668 98.1725 11.9929 97.4859C10.9939 96.4689 10.7014 94.7083 10.5572 93.3339C10.0456 88.4631 11.1471 83.4782 10.767 78.5889C10.1952 71.2306 8.82414 63.9104 7.98455 56.5749C7.18269 49.5659 6.96259 42.5735 6.8467 35.5254C5.44334 33.4604 4.01886 31.3874 2.87425 29.1648C0.421512 24.4021 -0.951768 18.1802 0.766943 12.9515C2.84323 6.63307 8.89466 2.88296 14.496 0.0263716Z" fill="#B7B7B9"/>
<path d="M14.4317 0.916758C15.712 0.686865 16.5606 0.766784 17.7609 1.2818C21.0263 2.68315 25.1222 5.61023 26.407 9.06311C29.57 17.5619 22.4638 25.1282 20.931 32.9692C19.9805 37.8315 20.7477 43.5672 20.9724 48.5175C21.6426 63.3114 22.0954 72.9144 17.9868 87.3689C16.9887 90.8792 16.0292 94.4529 14.4758 97.7665C14.4039 97.7472 14.3316 97.7293 14.2601 97.7086C12.7629 97.2776 12.1093 96.4015 11.8074 94.8857C10.7917 89.7859 12.041 83.8338 11.8209 78.6055C11.444 69.6667 9.22079 60.5083 8.32056 51.5532C7.8372 46.7417 8.63322 41.4946 7.67099 36.8042C7.07398 33.8928 5.48823 31.5041 4.0413 28.9627C1.27321 24.1013 -0.135065 18.9148 1.41519 13.3844C3.08853 7.41705 9.35825 3.72486 14.4317 0.916758Z" fill="#FDFDFD"/>
<path d="M20.6314 16.2863L20.7244 16.6091C20.3848 17.4771 20.0299 17.8641 19.1598 18.266C15.318 20.0409 10.5383 18.64 6.82151 17.3271L6.72491 17.0142C8.10222 16.1633 12.7687 20.278 20.6314 16.2863Z" fill="#B7B7B9"/>
</svg>
