<svg width="30" height="89" viewBox="0 0 30 89" fill="none" xmlns="http://www.w3.org/2000/svg">
<path d="M15.5955 0C16.98 0.144581 18.2872 0.825281 19.4713 1.52753C24.685 4.61806 27.9058 9.94329 29.3371 15.6884C27.6592 20.4905 24.1423 24.9523 22.8921 29.7554C21.8095 33.9141 22.133 38.6116 21.9263 42.896C21.3962 53.8869 21.3908 65.5315 19.8042 76.393C19.1838 80.6401 17.9422 85.5114 14.3341 88.179C11.4537 86.1477 10.3122 83.5362 9.53776 80.1723C8.25839 74.6158 8.77903 68.4118 8.83114 62.7283C8.91335 53.6906 9.03462 43.7608 7.42821 34.8538C6.36446 28.957 2.62741 25.1431 0.645455 19.7672C-0.241302 17.3623 -0.251618 14.9646 0.847171 12.6221C3.25678 7.48453 10.3405 1.86967 15.5955 0Z" fill="#B7B7B9"/>
<path d="M14.8951 0.957291C17.435 1.05203 19.1713 2.14492 21.0912 3.68771C24.2313 6.21114 27.5739 10.4763 27.9737 14.6202C28.5671 20.7662 22.2313 25.8252 21.4636 31.9968C19.8136 45.265 22.3755 78.0485 14.3686 87.4498C13.7303 86.8549 13.1113 86.2271 12.6126 85.5083C10.88 83.0082 10.256 79.303 9.95282 76.3404C8.50004 62.1598 11.1949 47.2177 8.07015 33.1184C6.74989 27.1596 -0.367521 20.9494 0.928026 14.7499C2.16787 8.81673 10.1298 4.06623 14.8951 0.957291Z" fill="#FDFDFD"/>
<path d="M7.91519 16.3039C8.79386 16.867 9.68465 17.3892 10.6509 17.787C14.4563 19.3536 17.0393 18.0865 20.5867 16.6138L21.0104 17.136C18.9628 18.7389 15.8106 19.2 13.317 19.7366C12.8224 19.5768 12.3301 19.4097 11.8405 19.236C10.1316 18.6258 8.73097 18.0313 7.91519 16.3039Z" fill="#B7B7B9"/>
</svg>
