<svg width="32" height="87" viewBox="0 0 32 87" fill="none" xmlns="http://www.w3.org/2000/svg">
<path d="M15.1 0.0246406C18.4184 -0.283828 22.1303 2.37026 24.6787 4.27226C27.4347 6.32961 31.4175 9.66171 31.8644 13.3068C32.6052 19.3468 26.1791 24.2917 24.8081 29.9407C22.0261 41.4044 22.8324 79.8534 17.5231 86.8431C16.9387 86.6851 16.3484 86.4704 15.8354 86.1418C6.78499 80.3415 11.6806 43.5116 9.26423 32.7107C8.11827 27.587 3.85744 24.4943 1.61045 20.0194C0.784332 18.3747 0.416875 16.3816 0 14.5972C2.35166 7.4207 8.69327 3.36437 15.1 0.0246406Z" fill="#B7B7B9"/>
<path d="M15.1113 1.00752C16.3224 0.831511 17.4841 1.0165 18.5905 1.53151C22.6384 3.41465 29.0811 7.75971 30.5963 12.1901C32.5859 18.0056 25.3184 24.263 23.9393 29.6781C20.6533 42.5835 22.0333 76.4998 17.3026 86.105C7.75262 82.781 12.6271 41.6208 10.1586 31.9711C9.00998 27.4802 5.18668 24.246 2.88219 20.3683C1.59293 18.1987 0.842286 15.5909 1.54397 13.0917C3.01381 7.85535 10.6609 3.61581 15.1113 1.00752Z" fill="#FDFDFD"/>
<path d="M9.22156 19.2624C11.4218 19.5489 12.3427 21.5645 14.7146 21.6898C17.8461 21.855 22.1963 19.2772 24.9968 20.4559C22.2237 21.3274 18.5352 22.6327 15.6346 22.5442C12.5651 22.4508 11.2215 21.3853 9.22156 19.2624Z" fill="#B7B7B9"/>
</svg>
