<svg width="50" height="85" viewBox="0 0 50 85" fill="none" xmlns="http://www.w3.org/2000/svg">
<path d="M24.9761 4.08706C32.9084 -4.26226 43.0693 1.59551 49.0201 9.03782C48.0471 19.013 44.7391 21.2652 41.8385 30.2324C41.3187 32.3342 42.418 34.524 42.6493 36.7012C43.9053 48.5263 48.3503 62.6997 42.4755 73.8446C40.7819 77.0581 34.4012 86.2421 30.0829 83.8157C26.6046 81.8612 29.1552 74.1885 29.4364 71.107C30.8614 62.49 31.9831 54.0267 29.8259 45.3572C28.4868 44.2006 28.4764 44.2374 27.0345 44.2176C23.2251 46.218 23.0476 54.9283 21.5994 58.6658C20.6928 61.0061 18.2123 63.4671 17.6346 66.3529C16.5753 71.6485 17.9225 77.8645 16.8965 82.946C16.8066 83.3905 16.4576 83.399 15.9882 83.5782C3.52684 78.5758 10.0688 40.9358 7.4948 30.4919C5.65839 23.0388 -1.21826 17.6471 0.188247 9.54834C1.31309 3.07229 3.23889 0.89191 9.67845 2.72835C9.56479 2.70366 15.6975 -0.890654 19.2464 0.701979C21.7162 1.81013 23.0077 1.18152 24.9761 4.08706Z" fill="#FDFDFD"/>
<path d="M24.9761 4.08706C32.9084 -4.26226 43.0693 1.59551 49.0201 9.03782C48.0471 19.013 44.7391 21.2652 41.8385 30.2324C41.3187 32.3342 42.418 34.524 42.6493 36.7012C43.9053 48.5263 48.3503 62.6997 42.4755 73.8446C40.7819 77.0581 34.4012 86.2421 30.0829 83.8157C26.6046 81.8612 29.1552 74.1885 29.4364 71.107C30.8614 62.49 31.9831 54.0267 29.8259 45.3572C28.4868 44.2006 28.4764 44.2374 27.0345 44.2176C23.2251 46.218 23.0476 54.9283 21.5994 58.6658C20.6928 61.0061 18.2123 63.4671 17.6346 66.3529C16.5753 71.6485 17.9225 77.8645 16.8965 82.946C16.8066 83.3905 16.4576 83.399 15.9882 83.5782C3.52684 78.5758 10.0688 40.9358 7.4948 30.4919C5.65839 23.0388 -1.21826 17.6471 0.188247 9.54834C1.31309 3.07229 3.23889 0.89191 9.67845 2.72835C9.56479 2.70366 15.6975 -0.890654 19.2464 0.701979C21.7162 1.81013 23.0077 1.18152 24.9761 4.08706C19.5136 1.53803 11.0203 -2.17168 10.4008 7.16231L9.83747 7.36885C8.9597 5.53286 8.42872 3.50289 6.94989 2.28966C6.31649 2.115 5.61885 1.87614 5.05014 2.37992C-5.38341 11.6205 6.37399 21.9365 8.39951 30.0622C10.5656 38.751 8.38828 52.5221 9.13354 61.7407C9.19643 73.409 9.65419 73.8967 16.096 83.7151C16.1485 78.9992 15.9756 73.7278 16.3188 69.0734C16.8421 64.868 19.7966 60.2266 21.1452 56.4356C22.111 53.7196 23.4299 42.2739 28.162 43.4247C34.0117 44.8476 31.6852 59.7547 31.333 64.5582C30.9669 69.5453 28.8331 75.6954 29.2006 80.8141C29.2913 82.0789 30.5065 83.1768 31.5451 83.8862C37.1239 80.9371 41.3268 75.9226 43.2544 69.9153C46.9259 58.396 41.1395 40.948 40.9679 27.9815C39.4549 26.0238 34.6047 25.3346 32.3128 24.8833C27.366 23.9094 24.1523 26.8419 19.4647 26.7728C15.1755 26.7099 12.3679 24.9884 7.72389 24.2026L7.6044 23.8228C9.82938 23.2058 15.6369 25.7791 19.4099 25.6417C24.5152 25.4558 25.5529 24.9309 30.2868 23.1771C33.0257 23.9521 39.3938 25.7194 41.7616 26.9411C45.4803 20.2805 47.3329 17.0221 48.0458 9.21788C44.275 4.34075 40.9194 1.98658 34.7543 0.988885C23.2597 -0.870908 27.6643 8.75539 25.8494 11.282C25.0224 9.09439 25.0642 6.44704 24.9761 4.08706Z" fill="#B7B7B9"/>
</svg>
