<svg width="45" height="82" viewBox="0 0 45 82" fill="none" xmlns="http://www.w3.org/2000/svg">
<path d="M30.5861 0.0165702C30.9742 -0.00453324 31.3529 -0.00228227 31.741 0.00579988C32.3416 0.0183721 32.8771 0.0857163 33.4278 0.349284C38.0004 2.53551 42.6669 8.43144 44.4584 13.0998C43.1296 21.4819 38.7884 28.4505 36.9618 36.5533C32.7149 55.3964 41.8974 62.2631 24.3204 79.2814C23.2027 80.3635 21.5087 81.8389 19.874 81.764C19.0793 81.7276 18.9495 81.4546 18.4239 80.8888C16.4968 75.3395 20.9647 67.5686 22.4036 62.1549C23.3811 58.4779 23.9983 54.3991 24.1717 50.5996C24.2319 49.2782 24.2894 48.355 23.3869 47.3452L22.2737 47.5423C21.2028 48.5548 20.8434 50.2171 20.3825 51.5802C20.299 51.8838 20.2141 52.1869 20.1274 52.4895C18.7146 57.4241 16.5282 61.9703 14.8432 66.7922C13.77 69.8625 13.2265 73.302 11.7292 76.1945C10.9912 77.6205 10.165 78.7269 8.73383 79.5189C7.49443 79.5297 6.70695 79.214 5.79055 78.3075C-0.0263872 72.553 4.91861 53.7876 5.80133 46.3946C6.1908 43.0244 6.23797 39.6232 5.94194 36.2435C5.2425 28.719 -0.0286328 22.5209 0.000117167 15.0229C0.0117969 11.9624 0.896758 8.80231 3.16891 6.64438C6.76445 3.22967 11.4615 2.55885 16.1886 2.75237C17.676 3.6908 18.8664 4.8048 20.1233 6.01847C23.3667 3.41377 26.7965 1.65815 30.5861 0.0165702Z" fill="#B7B7B9"/>
<path d="M30.7033 0.984631C31.4724 0.81311 32.1682 0.713421 32.9247 1.00079C36.8055 2.47443 41.7972 9.22617 43.471 12.9673C42.1701 22.2658 36.9569 30.0584 35.5549 39.1571C34.2014 47.941 36.7359 58.5475 32.8627 66.6458C31.051 70.4341 25.009 79.3115 20.949 80.6599C20.1018 80.9409 19.8812 80.9104 19.0937 80.5193C17.2169 76.0333 22.156 66.6598 23.417 61.9483C24.4053 58.2548 25.2539 53.6376 25.1779 49.8004C25.1465 48.2194 24.8289 47.5383 23.7346 46.4759C23.3442 46.4391 22.8222 46.2887 22.4817 46.4849C20.4427 47.66 19.8062 50.6023 19.2083 52.6933C17.7515 57.5364 15.6033 61.9896 13.9228 66.7267C12.8657 69.7067 12.3343 73.1484 10.807 75.9197C10.1129 77.1791 9.39194 78.2662 7.96387 78.6932C7.69434 78.6308 7.44188 78.5432 7.20379 78.3982C0.486175 74.2938 5.99854 52.3494 6.78692 45.9825C7.16696 42.9171 7.24423 39.6523 6.99267 36.569C6.47517 30.2281 2.88546 25.1723 1.46817 19.1318C0.754363 16.0884 0.475396 11.8259 2.26553 9.08789C4.11631 6.25644 7.60135 4.45322 10.8339 3.75636C12.8716 3.31678 15.0777 3.18029 16.8809 4.40877C18.9819 5.84021 19.7294 8.57826 20.1898 10.9418L20.2329 11.1668C20.7015 9.87455 20.5559 8.08256 20.6071 6.70186C23.6942 4.13847 26.9002 2.27733 30.7033 0.984631Z" fill="#FDFDFD"/>
<path d="M5.28248 22.4517C5.33863 22.4347 5.39299 22.4095 5.45094 22.401C7.17279 22.1459 9.89416 24.2769 11.851 24.3533C15.7407 24.505 20.011 23.1293 23.9228 22.8832C27.2273 22.6753 30.4257 23.5064 33.7005 23.515C35.4224 23.5195 37.2233 22.8653 38.8593 23.5338L31.3664 25.1435C23.8927 21.225 16.1477 26.9036 8.6085 24.3461C7.39156 23.933 5.86601 23.616 5.28248 22.4517Z" fill="#B7B7B9"/>
</svg>
