<svg width="44" height="75" viewBox="0 0 44 75" fill="none" xmlns="http://www.w3.org/2000/svg">
<path d="M30.6095 0.00594562C32.9181 -0.110348 35.7562 1.50428 37.6825 2.66227C48.8936 9.40234 41.7811 18.6124 36.5131 26.6393C36.276 33.4117 36.1241 42.2873 33.3035 48.4131C31.2856 52.7954 21.8129 74.1565 16.0499 71.4149C12.1974 65.7929 19.5462 52.4654 18.5853 47.1958L17.8185 46.9453C16.4492 47.8267 15.8756 49.4319 15.1541 50.9208C10.9656 58.7102 13.3384 65.9406 11.7697 73.2383C8.41092 76.1115 5.97077 71.5213 4.59032 69.0455C-2.25335 56.7754 6.10643 45.2727 6.42313 32.8455C6.50174 29.755 2.9017 25.8706 1.75754 23.0688C0.0684817 19.0601 -0.73068 12.9589 0.8618 8.77642C1.80875 6.2494 3.74534 4.21764 6.22458 3.1499C11.2774 0.957387 16.4245 2.69236 21.1669 4.57281C24.4763 2.57472 27.0885 1.48857 30.6095 0.00594562Z" fill="#B7B7B9"/>
<path d="M30.5341 0.975346C34.6359 0.90081 40.5337 5.02494 42.2384 8.33593C44.6337 12.9868 38.363 24.6197 34.0946 26.6348C31.1347 28.0322 24.2594 25.7467 20.9648 25.8949C13.6677 27.5176 12.9768 28.2486 5.91596 25.343C6.13338 25.5074 6.35619 25.665 6.58395 25.8154C15.2862 31.4994 13.6533 27.0142 21.3902 26.7233C27.0445 26.51 28.4941 28.8439 35.5532 27.3321C34.6736 46.212 32.7536 50.6002 22.1606 66.972C21.0093 68.7514 19.5655 70.362 17.4627 70.7104L16.5836 69.9884C15.2956 67.1156 16.0099 64.3219 16.4093 61.191C17.287 57.8216 21.8412 47.8244 18.5197 45.6378C10.1485 47.1029 12.2931 70.0989 10.8192 72.9258C8.1068 74.0937 6.69895 71.3624 5.53952 69.2224C-1.25119 56.6883 6.87235 45.5062 7.32741 32.9281C7.44061 29.7977 3.7076 25.409 2.51403 22.5489C0.155628 16.6323 -0.577047 6.75767 6.557 3.79601C11.4346 1.77098 15.7148 3.37978 20.2748 5.16234C20.2236 7.21251 20.0857 8.63453 20.6288 10.6308L21.0915 10.8832C21.8772 9.15537 21.6638 7.12137 21.6368 5.19019C24.4579 3.49877 27.4376 2.08709 30.5341 0.975346Z" fill="#FDFDFD"/>
</svg>
